<svg xmlns="http://www.w3.org/2000/svg" xmlns:svg="http://www.w3.org/2000/svg" id="svg2" width="507.859" height="400.454" version="1.0" viewBox="1.33 0.95 6.01 4.09"><rect id="rect4" width="6.002" height="4.082" x="1.331" y=".951" style="fill:#e5e5e5;stroke:none;stroke-width:0"/><rect id="rect6" width="6.002" height="4.082" x="1.331" y=".951" style="opacity:1;fill:none;stroke:#000;stroke-width:.02400924"/><rect id="rect8" width="1.2" height="1.681" x="1.571" y="1.191" style="fill:#fff;stroke:none;stroke-width:0"/><rect id="rect10" width="1.2" height="1.681" x="1.571" y="1.191" style="fill:none;stroke:#000;stroke-width:.02400924"/><text id="text12" x="1.729" y="1.495" style="font-size:.19207397px;font-style:normal;font-weight:400;text-anchor:start;fill:#000;font-family:sans">Bucket 1</text><line id="line14" x1="1.571" x2="2.772" y1="1.671" y2="1.671" style="stroke:#000;stroke-width:.02400924"/><rect id="rect16" width="1.2" height="1.681" x="3.012" y="1.191" style="fill:#fff;stroke:none;stroke-width:0"/><rect id="rect18" width="1.2" height="1.681" x="3.012" y="1.191" style="fill:none;stroke:#000;stroke-width:.02400924"/><text id="text20" x="3.16" y="1.495" style="font-size:.19207397px;font-style:normal;font-weight:400;text-anchor:start;fill:#000;font-family:sans">Bucket 2</text><line id="line22" x1="3.012" x2="4.212" y1="1.671" y2="1.671" style="stroke:#000;stroke-width:.02400924"/><rect id="rect24" width="1.2" height="1.681" x="4.452" y="1.191" style="fill:#fff;stroke:none;stroke-width:0"/><rect id="rect26" width="1.2" height="1.681" x="4.452" y="1.191" style="fill:none;stroke:#000;stroke-width:.02400924"/><text id="text28" x="4.592" y="1.495" style="font-size:.19207397px;font-style:normal;font-weight:400;text-anchor:start;fill:#000;font-family:sans">Bucket 3</text><line id="line30" x1="4.452" x2="5.653" y1="1.671" y2="1.671" style="stroke:#000;stroke-width:.02400924"/><rect id="rect32" width="1.2" height="1.681" x="5.893" y="1.191" style="fill:#fff;stroke:none;stroke-width:0"/><rect id="rect34" width="1.2" height="1.681" x="5.893" y="1.191" style="fill:none;stroke:#000;stroke-width:.02400924"/><text id="text36" x="6.069" y="1.486" style="font-size:.19207397px;font-style:normal;font-weight:400;text-anchor:start;fill:#000;font-family:sans">Bucket 4</text><line id="line38" x1="5.893" x2="7.093" y1="1.671" y2="1.671" style="stroke:#000;stroke-width:.02400924"/><rect id="rect40" width="1.2" height="1.681" x="2.294" y="3.105" style="fill:#fff;stroke:none;stroke-width:0"/><rect id="rect42" width="1.2" height="1.681" x="2.294" y="3.105" style="fill:none;stroke:#000;stroke-width:.02400924"/><text id="text44" x="2.443" y="3.419" style="font-size:.19207397px;font-style:normal;font-weight:400;text-anchor:start;fill:#000;font-family:sans">Bucket 5</text><line id="line46" x1="2.294" x2="3.495" y1="3.586" y2="3.586" style="stroke:#000;stroke-width:.02400924"/><rect id="rect48" width="1.2" height="1.681" x="3.735" y="3.105" style="fill:#fff;stroke:none;stroke-width:0"/><rect id="rect50" width="1.2" height="1.681" x="3.735" y="3.105" style="fill:none;stroke:#000;stroke-width:.02400924"/><text id="text52" x="3.883" y="3.419" style="font-size:.19207397px;font-style:normal;font-weight:400;text-anchor:start;fill:#000;font-family:sans">Bucket 6</text><line id="line54" x1="3.735" x2="4.935" y1="3.586" y2="3.586" style="stroke:#000;stroke-width:.02400924"/><rect id="rect56" width="1.2" height="1.681" x="5.175" y="3.105" style="fill:#fff;stroke:none;stroke-width:0"/><rect id="rect58" width="1.2" height="1.681" x="5.175" y="3.105" style="fill:none;stroke:#000;stroke-width:.02400924"/><text id="text60" x="5.333" y="3.419" style="font-size:.19207397px;font-style:normal;font-weight:400;text-anchor:start;fill:#000;font-family:sans">Bucket 7</text><line id="line62" x1="5.175" x2="6.376" y1="3.586" y2="3.586" style="stroke:#000;stroke-width:.02400924"/><ellipse id="ellipse64" cx="7.2" cy="4.011" rx=".308" ry=".308" transform="matrix(0.6859785,0,0,0.6859785,1.3310577,-0.7298436)" style="fill:#fff;stroke:none"/><ellipse id="ellipse66" cx="7.2" cy="4.011" rx=".308" ry=".308" transform="matrix(0.6859785,0,0,0.6859785,1.3310577,-0.7298436)" style="fill:none;stroke:#000;stroke-width:.035"/><text id="text68" x="6.144" y="2.136" style="font-size:.34038281px;font-style:normal;font-variant:normal;font-weight:400;font-stretch:normal;text-align:start;line-height:125%;writing-mode:lr-tb;text-anchor:start;fill:#000;font-family:Sans;-inkscape-font-specification:Sans">A</text><ellipse id="ellipse70" cx="3.007" cy="4.03" rx=".308" ry=".308" transform="matrix(0.6859785,0,0,0.6859785,1.3310577,-0.7298436)" style="fill:#fff;stroke:none"/><ellipse id="ellipse72" cx="3.007" cy="4.03" rx=".308" ry=".308" transform="matrix(0.6859785,0,0,0.6859785,1.3310577,-0.7298436)" style="fill:none;stroke:#000;stroke-width:.035"/><text id="text74" x="3.274" y="2.154" style="font-size:.34038281px;font-style:normal;font-variant:normal;font-weight:400;font-stretch:normal;text-align:start;line-height:125%;writing-mode:lr-tb;text-anchor:start;fill:#000;font-family:Sans;-inkscape-font-specification:Sans">B</text><ellipse id="ellipse76" cx="4.06" cy="6.782" rx=".308" ry=".308" transform="matrix(0.6859785,0,0,0.6859785,1.3310577,-0.7298436)" style="fill:#fff;stroke:none"/><ellipse id="ellipse78" cx="4.06" cy="6.782" rx=".308" ry=".308" transform="matrix(0.6859785,0,0,0.6859785,1.3310577,-0.7298436)" style="fill:none;stroke:#000;stroke-width:.035"/><text id="text80" x="3.977" y="4.047" style="font-size:.34038281px;font-style:normal;font-variant:normal;font-weight:400;font-stretch:normal;text-align:start;line-height:125%;writing-mode:lr-tb;text-anchor:start;fill:#000;font-family:Sans;-inkscape-font-specification:Sans">C</text><ellipse id="ellipse82" cx="7.845" cy="4.655" rx=".308" ry=".308" transform="matrix(0.6859785,0,0,0.6859785,1.3310577,-0.7298436)" style="fill:#fff;stroke:none"/><ellipse id="ellipse84" cx="7.845" cy="4.655" rx=".308" ry=".308" transform="matrix(0.6859785,0,0,0.6859785,1.3310577,-0.7298436)" style="fill:none;stroke:#000;stroke-width:.035"/><text id="text86" x="6.581" y="2.594" style="font-size:.34038281px;font-style:normal;font-variant:normal;font-weight:400;font-stretch:normal;text-align:start;line-height:125%;writing-mode:lr-tb;text-anchor:start;fill:#000;font-family:Sans;-inkscape-font-specification:Sans">D</text><ellipse id="ellipse88" cx=".87" cy="4.008" rx=".308" ry=".308" transform="matrix(0.6859785,0,0,0.6859785,1.3310577,-0.7298436)" style="fill:#fff;stroke:none"/><ellipse id="ellipse90" cx=".87" cy="4.008" rx=".308" ry=".308" transform="matrix(0.6859785,0,0,0.6859785,1.3310577,-0.7298436)" style="fill:none;stroke:#000;stroke-width:.035"/><text id="text92" x="1.799" y="2.14" style="font-size:.34038281px;font-style:normal;font-variant:normal;font-weight:400;font-stretch:normal;text-align:start;line-height:125%;writing-mode:lr-tb;text-anchor:start;fill:#000;font-family:Sans;-inkscape-font-specification:Sans">E</text></svg>