<svg xmlns="http://www.w3.org/2000/svg" xmlns:svg="http://www.w3.org/2000/svg" xmlns:xlink="http://www.w3.org/1999/xlink" id="Layer_1" width="775.635" height="184.773" enable-background="new 0 0 517 500" style="overflow:visible" overflow="visible" version="1.1" viewBox="0 0 775.635 184.773" xml:space="preserve"><metadata id="metadata3335"/><defs id="defs3333"><linearGradient id="XMLID_8_" x1="39.302" x2="78.626" y1="222.792" y2="222.792" gradientTransform="matrix(1.9133544,0,0,1.9133544,-21.124757,-365.67174)" gradientUnits="userSpaceOnUse"><stop style="stop-color:#b1d2ec" id="stop6390" offset=".006"/><stop style="stop-color:#c8e6f6" id="stop6392" offset="1"/></linearGradient><radialGradient id="radialGradient5450" cx="63.75" cy="246.375" r="58.375" gradientUnits="userSpaceOnUse" xlink:href="#XMLID_5_"/><linearGradient id="XMLID_8_-1" x1="39.302" x2="78.626" y1="222.792" y2="222.792" gradientTransform="matrix(1.9133544,0,0,1.9133544,-21.124757,-365.67174)" gradientUnits="userSpaceOnUse"><stop id="stop3323" offset=".006" style="stop-color:#b1d2ec"/><stop id="stop3325" offset="1" style="stop-color:#c8e6f6"/></linearGradient><linearGradient id="XMLID_7_" x1="66.669" x2="110.314" y1="242.227" y2="242.227" gradientUnits="userSpaceOnUse"><stop id="stop3313" offset=".006" style="stop-color:#b1d2ec"/><stop id="stop3315" offset="1" style="stop-color:#c8e6f6"/></linearGradient><linearGradient id="XMLID_6_" x1="28.655" x2="72.827" y1="262.375" y2="262.375" gradientUnits="userSpaceOnUse"><stop id="stop3303" offset="0" style="stop-color:#8aacd6"/><stop id="stop3305" offset="1" style="stop-color:#a7c7e6"/></linearGradient></defs><g id="shadow" transform="matrix(1.5826403,0,0,1.5826403,-8.5066916,-297.53638)"><radialGradient id="XMLID_5_" cx="63.75" cy="246.375" r="58.375" gradientUnits="userSpaceOnUse"><stop style="stop-color:#000" id="stop3283" offset="0"/><stop style="stop-color:#191919" id="stop3285" offset=".064"/><stop style="stop-color:#5e5e5e" id="stop3287" offset=".254"/><stop style="stop-color:#979797" id="stop3289" offset=".434"/><stop style="stop-color:#c4c4c4" id="stop3291" offset=".598"/><stop style="stop-color:#e4e4e4" id="stop3293" offset=".744"/><stop style="stop-color:#f8f8f8" id="stop3295" offset=".866"/><stop style="stop-color:#fff" id="stop3297" offset=".949"/></radialGradient><circle id="circle3299" cx="63.75" cy="246.375" r="58.375" style="opacity:.3;fill:url(#radialGradient5450)"/></g><path style="fill:#ff4b4b;stroke-width:1.9133544;opacity:.6;fill-opacity:1" id="path3327" d="m 74.946681,30.440455 -20.872783,36.439834 13.225105,23.805956 31.476593,0.08993 c 0,0 21.245884,-36.024636 22.302064,-37.813623 1.46562,0 8.23507,0 8.23507,0 L 116.4856,30.440455 Z"/><path style="fill:#fff;stroke-width:1.9133544" id="path3329" d="m 117.59918,28.5271 h -2.22523 -39.319437 -2.217578 l -1.102092,1.924835 -19.784084,34.541787 -1.073392,1.873174 1.048518,1.886567 12.15554,21.881121 1.088699,1.963102 2.244365,0.0057 29.259015,0.08419 2.192704,0.0057 1.115482,-1.88848 21.1904,-35.928969 h 3.84967 6.58386 l -3.25845,-5.72093 -10.64781,-18.695386 z M 56.270428,66.895596 76.054513,32.353809 h 39.319437 l 10.64781,18.695386 v 0 0 h -6.03663 l -22.300146,37.81171 -29.259015,-0.08419 z"/><text style="font-style:italic;font-variant:normal;font-weight:700;font-stretch:normal;font-size:11.02042961px;line-height:0%;font-family:'Nimbus Sans L';-inkscape-font-specification:'Nimbus Sans L, Bold Italic';text-align:start;letter-spacing:0;word-spacing:0;writing-mode:lr-tb;text-anchor:start;fill:#00507f;fill-opacity:1;stroke:none;stroke-width:.91836917px;stroke-linecap:butt;stroke-linejoin:miter;stroke-opacity:1" id="text5174" x="197.861" y="125.539" xml:space="preserve"><tspan id="tspan5176" x="197.861" y="125.539" style="font-size:121.07550049px;line-height:1;stroke-width:.91836917px">Boost.GIL</tspan></text><text style="font-style:italic;font-variant:normal;font-weight:400;font-stretch:normal;font-size:40px;line-height:25px;font-family:'Nimbus Sans L';-inkscape-font-specification:'Nimbus Sans L, Italic';font-variant-ligatures:normal;font-variant-caps:normal;font-variant-numeric:normal;font-feature-settings:normal;text-align:start;letter-spacing:0;word-spacing:0;writing-mode:lr-tb;text-anchor:start;fill:#00507f;fill-opacity:1;stroke:none;stroke-width:1px;stroke-linecap:butt;stroke-linejoin:miter;stroke-opacity:1" id="text879" x="290.193" y="168.329" xml:space="preserve"><tspan id="tspan877" x="290.193" y="168.329">Generic Image Library</tspan></text><polygon style="fill:green;opacity:.6" id="polygon3307" points="61.665 281.375 72.827 262.465 61.668 243.375 39.724 243.375 28.655 262.286 39.721 281.375" transform="matrix(1.9024077,0,0,1.9024077,-17.299337,-387.83071)"/><path style="fill:#fff;stroke-width:1.90240765" id="path3309" d="M 101.11032,73.265356 H 98.926359 59.361986 57.179924 l -1.101494,1.883384 -19.946744,34.07973 -1.120518,1.91192 1.112908,1.91763 19.946745,34.40694 1.099591,1.8967 h 2.191574 39.564373 2.172551 l 1.1034,-1.87006 20.11225,-34.07783 1.13574,-1.92524 -1.12623,-1.92904 -20.11225,-34.408848 z M 39.415241,111.1499 59.361986,77.070172 h 39.564373 l 20.112251,34.408848 v 0 0 L 98.926359,145.55685 H 59.361986 Z"/><polygon style="fill:#3c8fd0;opacity:.6;fill-opacity:1" id="polygon3317" points="99.112 261.21 110.314 242.047 99.106 223.15 77.164 223.15 66.669 241.262 78.307 261.304" transform="matrix(1.9115339,0,0,1.9115339,-45.169778,-370.60009)"/><path style="fill:#fff;stroke-width:1.91153395" id="path3319" d="m 145.36236,54.047166 h -2.17723 -39.75417 -2.204 l -1.10487,1.905799 -18.950946,32.710168 -1.110602,1.91918 1.112513,1.917269 21.133915,36.393698 1.11252,1.91344 2.21164,-0.01 37.5712,-0.16821 2.18297,-0.01 1.10105,-1.88477 20.29475,-34.71728 1.13545,-1.942119 -1.14883,-1.936384 -20.29476,-34.218368 z M 84.480009,90.580402 103.43096,57.870234 h 39.75417 l 20.29475,34.218368 v 0 0 l -20.29475,34.717278 -37.5712,0.16822 z"/></svg>