<svg xmlns="http://www.w3.org/2000/svg" xmlns:svg="http://www.w3.org/2000/svg" xmlns:xlink="http://www.w3.org/1999/xlink" id="svg6858" width="744.094" height="1052.362" version="1.1"><defs id="defs6860"><linearGradient id="linearGradient10687-2-5" x1="753.023" x2="1146.25" y1="3132.08" y2="3132.08" gradientUnits="userSpaceOnUse" xlink:href="#linearGradient4453-7-8-6-7-3-5"/><linearGradient id="linearGradient4453-7-8-6-7-3-5"><stop id="stop4455-61-8-7-1-2-8" offset="0" style="stop-color:#aac4dd;stop-opacity:1"/><stop id="stop4457-4-1-9-1-12-1" offset="1" style="stop-color:#c2dbe9;stop-opacity:1"/></linearGradient><linearGradient id="linearGradient10685-2-2" x1="753.023" x2="1146.25" y1="3132.08" y2="3132.08" gradientUnits="userSpaceOnUse" xlink:href="#linearGradient4453-7-8-6-7-3-5"/><linearGradient id="linearGradient6749"><stop id="stop6751" offset="0" style="stop-color:#aac4dd;stop-opacity:1"/><stop id="stop6753" offset="1" style="stop-color:#c2dbe9;stop-opacity:1"/></linearGradient><clipPath id="clipPath3387-3-6-4-2-8-4" clipPathUnits="userSpaceOnUse"><path id="path3389-2-0-7-7-8-9" d="m 862.109,3289.75 -109.086,-190.45 69.122,-124.42 164.511,-0.47 c 0,0 111.044,188.28 116.564,197.63 7.66,0 43.03,0 43.03,0 l -67.03,117.71 -217.111,0 z"/></clipPath><linearGradient id="linearGradient4492-8-8" x1="753.023" x2="1146.25" y1="3132.08" y2="3132.08" gradientUnits="userSpaceOnUse" xlink:href="#linearGradient4453-7-8-6-7-3-5"/><linearGradient id="linearGradient6758"><stop id="stop6760" offset="0" style="stop-color:#aac4dd;stop-opacity:1"/><stop id="stop6762" offset="1" style="stop-color:#c2dbe9;stop-opacity:1"/></linearGradient><linearGradient id="linearGradient10691-7-8" x1="1026.69" x2="1463.14" y1="2937.73" y2="2937.73" gradientUnits="userSpaceOnUse" xlink:href="#linearGradient4453-7-8-6-7-3-5"/><linearGradient id="linearGradient6765"><stop id="stop6767" offset="0" style="stop-color:#aac4dd;stop-opacity:1"/><stop id="stop6769" offset="1" style="stop-color:#c2dbe9;stop-opacity:1"/></linearGradient><linearGradient id="linearGradient10689-4-2" x1="1026.69" x2="1463.14" y1="2937.73" y2="2937.73" gradientUnits="userSpaceOnUse" xlink:href="#linearGradient4453-7-8-6-7-3-5"/><linearGradient id="linearGradient6772"><stop id="stop6774" offset="0" style="stop-color:#aac4dd;stop-opacity:1"/><stop id="stop6776" offset="1" style="stop-color:#c2dbe9;stop-opacity:1"/></linearGradient><clipPath id="clipPath3369-1-5-6-1-0-7" clipPathUnits="userSpaceOnUse"><path id="path3371-89-4-1-6-0-1" d="m 1131.64,3128.5 -104.95,-181.12 116.38,-200.42 208.05,0.94 112.02,191.63 -112.08,188.97 -219.42,0 z"/></clipPath><linearGradient id="linearGradient4498-5-7" x1="1026.69" x2="1463.14" y1="2937.73" y2="2937.73" gradientUnits="userSpaceOnUse" xlink:href="#linearGradient4453-7-8-6-7-3-5"/><linearGradient id="linearGradient6781"><stop id="stop6783" offset="0" style="stop-color:#aac4dd;stop-opacity:1"/><stop id="stop6785" offset="1" style="stop-color:#c2dbe9;stop-opacity:1"/></linearGradient><linearGradient id="linearGradient10695-9-9" x1="646.555" x2="1088.27" y1="2736.25" y2="2736.25" gradientUnits="userSpaceOnUse" xlink:href="#linearGradient4459-1-2-8-9-9-5"/><linearGradient id="linearGradient4459-1-2-8-9-9-5"><stop style="stop-color:#839bc2;stop-opacity:1" id="stop4461-2-1-5-2-5-0" offset="0"/><stop style="stop-color:#9fb6d4;stop-opacity:1" id="stop4463-3-2-8-7-30-3" offset="1"/></linearGradient><linearGradient id="linearGradient10693-9-4" x1="646.555" x2="1088.27" y1="2736.25" y2="2736.25" gradientUnits="userSpaceOnUse" xlink:href="#linearGradient4459-1-2-8-9-9-5"/><linearGradient id="linearGradient6792"><stop style="stop-color:#839bc2;stop-opacity:1" id="stop6794" offset="0"/><stop style="stop-color:#9fb6d4;stop-opacity:1" id="stop6796" offset="1"/></linearGradient><clipPath id="clipPath3351-4-7-3-5-95-0" clipPathUnits="userSpaceOnUse"><path id="path3353-1-9-3-4-1-1" d="m 757.242,2926.25 -110.687,-189.11 110.656,-190.89 219.437,0 111.622,189.1 -111.59,190.9 -219.438,0 z"/></clipPath><linearGradient id="linearGradient4510-1-5" x1="646.555" x2="1088.27" y1="2736.25" y2="2736.25" gradientUnits="userSpaceOnUse" xlink:href="#linearGradient4459-1-2-8-9-9-5"/><linearGradient id="linearGradient6801"><stop style="stop-color:#839bc2;stop-opacity:1" id="stop6803" offset="0"/><stop style="stop-color:#9fb6d4;stop-opacity:1" id="stop6805" offset="1"/></linearGradient><radialGradient id="radialGradient10699-1-3" cx="997.47" cy="2896.25" r="583.74" fx="997.47" fy="2896.25" gradientUnits="userSpaceOnUse" xlink:href="#radialGradient3327-8-4-8-0-2-4"/><radialGradient id="radialGradient3327-8-4-8-0-2-4" cx="0" cy="0" r="1" fx="0" fy="0" gradientTransform="matrix(58.375,0,0,-58.375,99.75,289.625)" gradientUnits="userSpaceOnUse" spreadMethod="pad"><stop id="stop3329-7-0-1-0-33-2" offset="0" style="stop-opacity:1;stop-color:#aeaeb3"/><stop id="stop3331-4-3-0-0-97-3" offset=".949" style="stop-opacity:1;stop-color:#fff"/><stop id="stop3333-2-4-9-7-2-2" offset="1" style="stop-opacity:1;stop-color:#fff"/></radialGradient><radialGradient id="radialGradient13050" cx="997.47" cy="2896.25" r="583.74" fx="997.47" fy="2896.25" gradientUnits="userSpaceOnUse" xlink:href="#radialGradient3327-8-4-8-0-2-4"/><radialGradient id="radialGradient6813" cx="0" cy="0" r="1" fx="0" fy="0" gradientTransform="matrix(58.375,0,0,-58.375,99.75,289.625)" gradientUnits="userSpaceOnUse" spreadMethod="pad"><stop id="stop6815" offset="0" style="stop-opacity:1;stop-color:#aeaeb3"/><stop id="stop6817" offset=".949" style="stop-opacity:1;stop-color:#fff"/><stop id="stop6819" offset="1" style="stop-opacity:1;stop-color:#fff"/></radialGradient><clipPath id="clipPath3323-7-2-4-5-3-4" clipPathUnits="userSpaceOnUse"><path id="path3325-9-2-9-5-04-9" d="m 997.469,2312.51 c -322.379,0 -583.739,261.36 -583.739,583.74 0,322.38 261.36,583.74 583.739,583.74 322.381,0 583.741,-261.36 583.741,-583.74 0,-322.38 -261.36,-583.74 -583.741,-583.74"/></clipPath><radialGradient id="radialGradient4516-8-2" cx="997.47" cy="2896.25" r="583.74" fx="997.47" fy="2896.25" gradientUnits="userSpaceOnUse" xlink:href="#radialGradient3327-8-4-8-0-2-4"/><radialGradient id="radialGradient6824" cx="0" cy="0" r="1" fx="0" fy="0" gradientTransform="matrix(58.375,0,0,-58.375,99.75,289.625)" gradientUnits="userSpaceOnUse" spreadMethod="pad"><stop id="stop6826" offset="0" style="stop-opacity:1;stop-color:#aeaeb3"/><stop id="stop6828" offset=".949" style="stop-opacity:1;stop-color:#fff"/><stop id="stop6830" offset="1" style="stop-opacity:1;stop-color:#fff"/></radialGradient><radialGradient id="radialGradient6856" cx="997.47" cy="2896.25" r="583.74" fx="997.47" fy="2896.25" gradientUnits="userSpaceOnUse" xlink:href="#radialGradient3327-8-4-8-0-2-4"/></defs><metadata id="metadata6863"/><g id="layer1"><g style="fill:url(#radialGradient10699-1-3);fill-opacity:1" id="g3319-1-2-5-1-4-4" transform="matrix(0.10419818,0,0,-0.10419818,137.10955,897.00327)"><g style="fill:url(#radialGradient6856);fill-opacity:1" id="g3321-9-2-7-4-3-9" clip-path="url(#clipPath3323-7-2-4-5-3-4)"><path style="fill:url(#radialGradient4516-8-2);fill-opacity:1;fill-rule:nonzero;stroke:none" id="path3335-8-7-3-8-92-0" d="m 997.469,2312.51 c -322.379,0 -583.739,261.36 -583.739,583.74 0,322.38 261.36,583.74 583.739,583.74 322.381,0 583.741,-261.36 583.741,-583.74 0,-322.38 -261.36,-583.74 -583.741,-583.74"/></g></g><g style="fill:url(#linearGradient10695-9-9);fill-opacity:1" id="g3347-6-8-3-7-4-4" transform="matrix(0.125,0,0,-0.125,112.08304,959.82207)"><g style="fill:url(#linearGradient10693-9-4);fill-opacity:1" id="g3349-5-5-4-7-9-4" clip-path="url(#clipPath3351-4-7-3-5-95-0)"><path style="fill:url(#linearGradient4510-1-5);fill-opacity:1;fill-rule:nonzero;stroke:none" id="path3361-0-8-2-9-0-9" d="m 757.242,2926.25 -110.687,-189.11 110.656,-190.89 219.437,0 111.622,189.1 -111.59,190.9 -219.438,0"/></g></g><path style="fill:#fff;fill-opacity:1;fill-rule:nonzero;stroke:none" id="path3363-6-9-0-1-5-8" d="m 194.34816,617.68335 13.106,-22.3925 25.99649,0 13.21487,22.60874 -13.21487,22.39125 -25.99649,0 -13.106,-22.60749 z m 40.53761,-24.8925 -28.86524,0 -0.72412,1.23749 -13.106,22.39251 -0.73575,1.25625 0.73087,1.26 13.106,22.60744 0.72263,1.24634 28.86374,0 0.72512,-1.22884 13.215,-22.39119 0.74625,-1.265 -0.74,-1.26751 -13.21537,-22.60875 -0.72313,-1.23874"/><g style="fill:url(#linearGradient10691-7-8);fill-opacity:1" id="g3365-0-4-1-9-7-5" transform="matrix(0.125,0,0,-0.125,112.08304,959.82207)"><g style="fill:url(#linearGradient10689-4-2);fill-opacity:1" id="g3367-2-4-2-8-4-3" clip-path="url(#clipPath3369-1-5-6-1-0-7)"><path style="fill:url(#linearGradient4498-5-7);fill-opacity:1;fill-rule:nonzero;stroke:none" id="path3379-4-6-7-6-7-2" d="m 1131.64,3128.5 -104.95,-181.12 116.38,-200.42 208.05,0.94 112.02,191.63 -112.08,188.97 -219.42,0"/></g></g><path style="fill:#fff;fill-opacity:1;fill-rule:nonzero;stroke:none" id="path3381-6-8-0-0-66-3" d="m 241.86427,591.39959 12.3925,-21.38999 25.99625,0 13.27125,22.37625 -13.27125,22.7025 -24.56875,0.11 -13.82,-23.79876 z m 39.8125,-23.88999 -28.86125,0 -0.7225,1.24625 -12.3925,21.39 -0.72625,1.255 0.7275,1.25374 13.82,23.79876 0.7275,1.25125 1.44625,-0.006 24.56875,-0.11 1.4275,-0.006 0.72,-1.2325 13.27125,-22.7025 0.7425,-1.27 -0.75125,-1.26625 -13.27125,-22.37625 -0.72625,-1.225"/><g style="fill:url(#linearGradient10687-2-5);fill-opacity:1" id="g3383-5-5-2-2-3-0" transform="matrix(0.125,0,0,-0.125,112.08304,959.82207)"><g style="fill:url(#linearGradient10685-2-2);fill-opacity:1" id="g3385-0-6-4-8-0-1" clip-path="url(#clipPath3387-3-6-4-2-8-4)"><path style="fill:url(#linearGradient4492-8-8);fill-opacity:1;fill-rule:nonzero;stroke:none" id="path3397-9-6-1-6-9-7" d="m 862.109,3289.75 -109.086,-190.45 69.122,-124.42 164.511,-0.47 c 0,0 111.044,188.28 116.564,197.63 7.66,0 43.03,0 43.03,0 l -67.03,117.71 -217.111,0"/></g></g><path style="fill:#fff;fill-opacity:1;fill-rule:nonzero;stroke:none" id="path3399-6-7-3-2-0-1" d="m 207.64603,572.41959 12.92424,-22.56624 25.68775,0 6.95625,12.21375 -3.94375,0 -14.56837,24.7025 -19.11525,-0.055 -7.94087,-14.295 z m 40.06574,-25.06624 -28.59012,0 -0.71975,1.2575 -12.92537,22.56625 -0.70112,1.22375 0.68512,1.23249 7.94137,14.295 0.71087,1.2825 1.46638,0.004 19.11525,0.055 1.43212,0.004 0.729,-1.23375 13.84375,-23.47249 6.81625,0 -2.12875,-3.7375 -6.95625,-12.21375 -0.71875,-1.2625"/><g id="g3465-0-8-9" transform="matrix(1.25,0,0,-1.25,105.02062,972.84257)"><text style="font-size:11.81779194px" id="text3467-9-0-8" x="116.984" y="-267.775" transform="matrix(1,0,-0.17627963,-1,0,0)"><tspan id="tspan13239" x="116.984" y="-267.775" style="font-size:46.39999771px;font-variant:normal;font-weight:400;writing-mode:lr-tb;fill:#49608a;fill-opacity:1;fill-rule:nonzero;stroke:none;font-family:Denmark;-inkscape-font-specification:Denmark">UTILITY</tspan></text><text style="font-size:38.40000153px" id="text3471-0-51-2" x="112.744" y="-306.755" transform="matrix(0.99235617,0,-0.17763746,-1.0077027,0,0)"><tspan style="font-size:38.40000153px;font-variant:normal;font-weight:400;writing-mode:lr-tb;fill:#49608a;fill-opacity:1;fill-rule:nonzero;stroke:none;font-family:Denmark;-inkscape-font-specification:Denmark" id="tspan3473-6-0-9" x="112.744" y="-306.755">boost</tspan></text></g><path id="path13283" d="m 201.43967,613.81579 4.64114,4.2175 3.3738,-3.71306 -0.92817,-0.84354 1.68708,-1.85636 20.53445,20.81026 4.2175,-4.64111 -22.22144,-18.95384 c 0,0 1.69594,-1.83698 2.53062,-2.78454 2.53905,-2.76559 5.98925,-4.72587 5.98925,-4.72587 0,0 -6.03647,0.58224 -8.76507,2.21476 -0.84428,0.92751 -6.75676,7.40649 -6.75676,7.40649 l -0.92819,-0.84355 -3.37382,3.71308" style="fill:#fff;fill-opacity:1;stroke:none"/><g id="g3086" transform="matrix(0.99872217,-0.05053738,0.05053738,0.99872217,-31.539183,11.181538)"><path style="fill:#fff;fill-opacity:1;stroke:none" id="path13243" d="m 227.74101,611.16418 -15.09943,12.783 2.55659,3.01989 15.09944,-12.78302 c 3.56324,2.16769 7.58975,-1.2411 7.0464,-5.96538 l -4.02652,3.40879 -2.55659,-3.01989 4.02652,-3.40879 c -3.56324,-2.16769 -8.59639,2.0933 -7.04641,5.9654 z"/><path style="fill:#fff;fill-opacity:1;stroke:none" id="path13243-1" d="m 215.25729,626.9851 15.08951,-12.7947 -2.55893,-3.01791 -15.08952,12.79471 c -3.56492,-2.16491 -7.58878,1.24699 -7.04177,5.97085 l 4.02388,-3.41192 2.55892,3.01791 -4.02387,3.41192 c 3.56491,2.16492 8.59476,-2.09997 7.04178,-5.97086 z"/></g></g></svg>