<svg xmlns="http://www.w3.org/2000/svg" xmlns:xlink="http://www.w3.org/1999/xlink" width="960" height="480" version="1.1" viewBox="0 0 720 360"><defs><style type="text/css">*{stroke-linecap:butt;stroke-linejoin:round}</style></defs><g id="figure_1"><g id="patch_1"><path d="M 0 360 L 720 360 L 720 0 L 0 0 z" style="fill:#fff"/></g><g id="axes_1"><g id="patch_2"><path d="M 50.4 295.2 L 268.8 295.2 L 268.8 54 L 50.4 54 z" style="fill:#fff"/></g><g id="matplotlib.axis_1"><g id="xtick_1"><g id="line2d_1"><defs><path id="m482e982188" d="M 0 0 L 0 3.5" style="stroke:#000;stroke-width:.8"/></defs><g><use style="stroke:#000;stroke-width:.8" x="74.141" y="295.2" xlink:href="#m482e982188"/></g></g><g id="text_1"><defs><path id="DejaVuSans-49" d="M 12.40625 8.296875 L 28.515625 8.296875 L 28.515625 63.921875 L 10.984375 60.40625 L 10.984375 69.390625 L 28.421875 72.90625 L 38.28125 72.90625 L 38.28125 8.296875 L 54.390625 8.296875 L 54.390625 0 L 12.40625 0 z"/><path id="DejaVuSans-48" d="M 31.78125 66.40625 Q 24.171875 66.40625 20.328125 58.90625 Q 16.5 51.421875 16.5 36.375 Q 16.5 21.390625 20.328125 13.890625 Q 24.171875 6.390625 31.78125 6.390625 Q 39.453125 6.390625 43.28125 13.890625 Q 47.125 21.390625 47.125 36.375 Q 47.125 51.421875 43.28125 58.90625 Q 39.453125 66.40625 31.78125 66.40625 z M 31.78125 74.21875 Q 44.046875 74.21875 50.515625 64.515625 Q 56.984375 54.828125 56.984375 36.375 Q 56.984375 17.96875 50.515625 8.265625 Q 44.046875 -1.421875 31.78125 -1.421875 Q 19.53125 -1.421875 13.0625 8.265625 Q 6.59375 17.96875 6.59375 36.375 Q 6.59375 54.828125 13.0625 64.515625 Q 19.53125 74.21875 31.78125 74.21875 z"/></defs><g transform="translate(65.341105 309.798437)scale(0.1 -0.1)"><use transform="translate(0 0.684375)" xlink:href="#DejaVuSans-49"/><use transform="translate(63.623047 0.684375)" xlink:href="#DejaVuSans-48"/><use transform="translate(128.203125 38.965625)scale(0.7)" xlink:href="#DejaVuSans-49"/></g></g></g><g id="xtick_2"><g id="line2d_2"><g><use style="stroke:#000;stroke-width:.8" x="108.854" y="295.2" xlink:href="#m482e982188"/></g></g><g id="text_2"><defs><path id="DejaVuSans-50" d="M 19.1875 8.296875 L 53.609375 8.296875 L 53.609375 0 L 7.328125 0 L 7.328125 8.296875 Q 12.9375 14.109375 22.625 23.890625 Q 32.328125 33.6875 34.8125 36.53125 Q 39.546875 41.84375 41.421875 45.53125 Q 43.3125 49.21875 43.3125 52.78125 Q 43.3125 58.59375 39.234375 62.25 Q 35.15625 65.921875 28.609375 65.921875 Q 23.96875 65.921875 18.8125 64.3125 Q 13.671875 62.703125 7.8125 59.421875 L 7.8125 69.390625 Q 13.765625 71.78125 18.9375 73 Q 24.125 74.21875 28.421875 74.21875 Q 39.75 74.21875 46.484375 68.546875 Q 53.21875 62.890625 53.21875 53.421875 Q 53.21875 48.921875 51.53125 44.890625 Q 49.859375 40.875 45.40625 35.40625 Q 44.1875 33.984375 37.640625 27.21875 Q 31.109375 20.453125 19.1875 8.296875 z"/></defs><g transform="translate(100.054459 309.798437)scale(0.1 -0.1)"><use transform="translate(0 0.765625)" xlink:href="#DejaVuSans-49"/><use transform="translate(63.623047 0.765625)" xlink:href="#DejaVuSans-48"/><use transform="translate(128.203125 39.046875)scale(0.7)" xlink:href="#DejaVuSans-50"/></g></g></g><g id="xtick_3"><g id="line2d_3"><g><use style="stroke:#000;stroke-width:.8" x="143.568" y="295.2" xlink:href="#m482e982188"/></g></g><g id="text_3"><defs><path id="DejaVuSans-51" d="M 40.578125 39.3125 Q 47.65625 37.796875 51.625 33 Q 55.609375 28.21875 55.609375 21.1875 Q 55.609375 10.40625 48.1875 4.484375 Q 40.765625 -1.421875 27.09375 -1.421875 Q 22.515625 -1.421875 17.65625 -0.515625 Q 12.796875 0.390625 7.625 2.203125 L 7.625 11.71875 Q 11.71875 9.328125 16.59375 8.109375 Q 21.484375 6.890625 26.8125 6.890625 Q 36.078125 6.890625 40.9375 10.546875 Q 45.796875 14.203125 45.796875 21.1875 Q 45.796875 27.640625 41.28125 31.265625 Q 36.765625 34.90625 28.71875 34.90625 L 20.21875 34.90625 L 20.21875 43.015625 L 29.109375 43.015625 Q 36.375 43.015625 40.234375 45.921875 Q 44.09375 48.828125 44.09375 54.296875 Q 44.09375 59.90625 40.109375 62.90625 Q 36.140625 65.921875 28.71875 65.921875 Q 24.65625 65.921875 20.015625 65.03125 Q 15.375 64.15625 9.8125 62.3125 L 9.8125 71.09375 Q 15.4375 72.65625 20.34375 73.4375 Q 25.25 74.21875 29.59375 74.21875 Q 40.828125 74.21875 47.359375 69.109375 Q 53.90625 64.015625 53.90625 55.328125 Q 53.90625 49.265625 50.4375 45.09375 Q 46.96875 40.921875 40.578125 39.3125 z"/></defs><g transform="translate(134.767813 309.798437)scale(0.1 -0.1)"><use transform="translate(0 0.765625)" xlink:href="#DejaVuSans-49"/><use transform="translate(63.623047 0.765625)" xlink:href="#DejaVuSans-48"/><use transform="translate(128.203125 39.046875)scale(0.7)" xlink:href="#DejaVuSans-51"/></g></g></g><g id="xtick_4"><g id="line2d_4"><g><use style="stroke:#000;stroke-width:.8" x="178.281" y="295.2" xlink:href="#m482e982188"/></g></g><g id="text_4"><defs><path id="DejaVuSans-52" d="M 37.796875 64.3125 L 12.890625 25.390625 L 37.796875 25.390625 z M 35.203125 72.90625 L 47.609375 72.90625 L 47.609375 25.390625 L 58.015625 25.390625 L 58.015625 17.1875 L 47.609375 17.1875 L 47.609375 0 L 37.796875 0 L 37.796875 17.1875 L 4.890625 17.1875 L 4.890625 26.703125 z"/></defs><g transform="translate(169.481167 309.798437)scale(0.1 -0.1)"><use transform="translate(0 0.684375)" xlink:href="#DejaVuSans-49"/><use transform="translate(63.623047 0.684375)" xlink:href="#DejaVuSans-48"/><use transform="translate(128.203125 38.965625)scale(0.7)" xlink:href="#DejaVuSans-52"/></g></g></g><g id="xtick_5"><g id="line2d_5"><g><use style="stroke:#000;stroke-width:.8" x="212.995" y="295.2" xlink:href="#m482e982188"/></g></g><g id="text_5"><defs><path id="DejaVuSans-53" d="M 10.796875 72.90625 L 49.515625 72.90625 L 49.515625 64.59375 L 19.828125 64.59375 L 19.828125 46.734375 Q 21.96875 47.46875 24.109375 47.828125 Q 26.265625 48.1875 28.421875 48.1875 Q 40.625 48.1875 47.75 41.5 Q 54.890625 34.8125 54.890625 23.390625 Q 54.890625 11.625 47.5625 5.09375 Q 40.234375 -1.421875 26.90625 -1.421875 Q 22.3125 -1.421875 17.546875 -0.640625 Q 12.796875 0.140625 7.71875 1.703125 L 7.71875 11.625 Q 12.109375 9.234375 16.796875 8.0625 Q 21.484375 6.890625 26.703125 6.890625 Q 35.15625 6.890625 40.078125 11.328125 Q 45.015625 15.765625 45.015625 23.390625 Q 45.015625 31 40.078125 35.4375 Q 35.15625 39.890625 26.703125 39.890625 Q 22.75 39.890625 18.8125 39.015625 Q 14.890625 38.140625 10.796875 36.28125 z"/></defs><g transform="translate(204.194521 309.798437)scale(0.1 -0.1)"><use transform="translate(0 0.684375)" xlink:href="#DejaVuSans-49"/><use transform="translate(63.623047 0.684375)" xlink:href="#DejaVuSans-48"/><use transform="translate(128.203125 38.965625)scale(0.7)" xlink:href="#DejaVuSans-53"/></g></g></g><g id="xtick_6"><g id="line2d_6"><g><use style="stroke:#000;stroke-width:.8" x="247.708" y="295.2" xlink:href="#m482e982188"/></g></g><g id="text_6"><defs><path id="DejaVuSans-54" d="M 33.015625 40.375 Q 26.375 40.375 22.484375 35.828125 Q 18.609375 31.296875 18.609375 23.390625 Q 18.609375 15.53125 22.484375 10.953125 Q 26.375 6.390625 33.015625 6.390625 Q 39.65625 6.390625 43.53125 10.953125 Q 47.40625 15.53125 47.40625 23.390625 Q 47.40625 31.296875 43.53125 35.828125 Q 39.65625 40.375 33.015625 40.375 z M 52.59375 71.296875 L 52.59375 62.3125 Q 48.875 64.0625 45.09375 64.984375 Q 41.3125 65.921875 37.59375 65.921875 Q 27.828125 65.921875 22.671875 59.328125 Q 17.53125 52.734375 16.796875 39.40625 Q 19.671875 43.65625 24.015625 45.921875 Q 28.375 48.1875 33.59375 48.1875 Q 44.578125 48.1875 50.953125 41.515625 Q 57.328125 34.859375 57.328125 23.390625 Q 57.328125 12.15625 50.6875 5.359375 Q 44.046875 -1.421875 33.015625 -1.421875 Q 20.359375 -1.421875 13.671875 8.265625 Q 6.984375 17.96875 6.984375 36.375 Q 6.984375 53.65625 15.1875 63.9375 Q 23.390625 74.21875 37.203125 74.21875 Q 40.921875 74.21875 44.703125 73.484375 Q 48.484375 72.75 52.59375 71.296875 z"/></defs><g transform="translate(238.907874 309.798437)scale(0.1 -0.1)"><use transform="translate(0 0.765625)" xlink:href="#DejaVuSans-49"/><use transform="translate(63.623047 0.765625)" xlink:href="#DejaVuSans-48"/><use transform="translate(128.203125 39.046875)scale(0.7)" xlink:href="#DejaVuSans-54"/></g></g></g><g id="xtick_7"><g id="line2d_7"><defs><path id="m89e414f2da" d="M 0 0 L 0 2" style="stroke:#000;stroke-width:.6"/></defs><g><use style="stroke:#000;stroke-width:.6" x="55.99" y="295.2" xlink:href="#m89e414f2da"/></g></g></g><g id="xtick_8"><g id="line2d_8"><g><use style="stroke:#000;stroke-width:.6" x="60.327" y="295.2" xlink:href="#m89e414f2da"/></g></g></g><g id="xtick_9"><g id="line2d_9"><g><use style="stroke:#000;stroke-width:.6" x="63.691" y="295.2" xlink:href="#m89e414f2da"/></g></g></g><g id="xtick_10"><g id="line2d_10"><g><use style="stroke:#000;stroke-width:.6" x="66.44" y="295.2" xlink:href="#m89e414f2da"/></g></g></g><g id="xtick_11"><g id="line2d_11"><g><use style="stroke:#000;stroke-width:.6" x="68.764" y="295.2" xlink:href="#m89e414f2da"/></g></g></g><g id="xtick_12"><g id="line2d_12"><g><use style="stroke:#000;stroke-width:.6" x="70.777" y="295.2" xlink:href="#m89e414f2da"/></g></g></g><g id="xtick_13"><g id="line2d_13"><g><use style="stroke:#000;stroke-width:.6" x="72.553" y="295.2" xlink:href="#m89e414f2da"/></g></g></g><g id="xtick_14"><g id="line2d_14"><g><use style="stroke:#000;stroke-width:.6" x="84.591" y="295.2" xlink:href="#m89e414f2da"/></g></g></g><g id="xtick_15"><g id="line2d_15"><g><use style="stroke:#000;stroke-width:.6" x="90.704" y="295.2" xlink:href="#m89e414f2da"/></g></g></g><g id="xtick_16"><g id="line2d_16"><g><use style="stroke:#000;stroke-width:.6" x="95.041" y="295.2" xlink:href="#m89e414f2da"/></g></g></g><g id="xtick_17"><g id="line2d_17"><g><use style="stroke:#000;stroke-width:.6" x="98.405" y="295.2" xlink:href="#m89e414f2da"/></g></g></g><g id="xtick_18"><g id="line2d_18"><g><use style="stroke:#000;stroke-width:.6" x="101.153" y="295.2" xlink:href="#m89e414f2da"/></g></g></g><g id="xtick_19"><g id="line2d_19"><g><use style="stroke:#000;stroke-width:.6" x="103.477" y="295.2" xlink:href="#m89e414f2da"/></g></g></g><g id="xtick_20"><g id="line2d_20"><g><use style="stroke:#000;stroke-width:.6" x="105.49" y="295.2" xlink:href="#m89e414f2da"/></g></g></g><g id="xtick_21"><g id="line2d_21"><g><use style="stroke:#000;stroke-width:.6" x="107.266" y="295.2" xlink:href="#m89e414f2da"/></g></g></g><g id="xtick_22"><g id="line2d_22"><g><use style="stroke:#000;stroke-width:.6" x="119.304" y="295.2" xlink:href="#m89e414f2da"/></g></g></g><g id="xtick_23"><g id="line2d_23"><g><use style="stroke:#000;stroke-width:.6" x="125.417" y="295.2" xlink:href="#m89e414f2da"/></g></g></g><g id="xtick_24"><g id="line2d_24"><g><use style="stroke:#000;stroke-width:.6" x="129.754" y="295.2" xlink:href="#m89e414f2da"/></g></g></g><g id="xtick_25"><g id="line2d_25"><g><use style="stroke:#000;stroke-width:.6" x="133.118" y="295.2" xlink:href="#m89e414f2da"/></g></g></g><g id="xtick_26"><g id="line2d_26"><g><use style="stroke:#000;stroke-width:.6" x="135.867" y="295.2" xlink:href="#m89e414f2da"/></g></g></g><g id="xtick_27"><g id="line2d_27"><g><use style="stroke:#000;stroke-width:.6" x="138.191" y="295.2" xlink:href="#m89e414f2da"/></g></g></g><g id="xtick_28"><g id="line2d_28"><g><use style="stroke:#000;stroke-width:.6" x="140.204" y="295.2" xlink:href="#m89e414f2da"/></g></g></g><g id="xtick_29"><g id="line2d_29"><g><use style="stroke:#000;stroke-width:.6" x="141.979" y="295.2" xlink:href="#m89e414f2da"/></g></g></g><g id="xtick_30"><g id="line2d_30"><g><use style="stroke:#000;stroke-width:.6" x="154.018" y="295.2" xlink:href="#m89e414f2da"/></g></g></g><g id="xtick_31"><g id="line2d_31"><g><use style="stroke:#000;stroke-width:.6" x="160.13" y="295.2" xlink:href="#m89e414f2da"/></g></g></g><g id="xtick_32"><g id="line2d_32"><g><use style="stroke:#000;stroke-width:.6" x="164.467" y="295.2" xlink:href="#m89e414f2da"/></g></g></g><g id="xtick_33"><g id="line2d_33"><g><use style="stroke:#000;stroke-width:.6" x="167.831" y="295.2" xlink:href="#m89e414f2da"/></g></g></g><g id="xtick_34"><g id="line2d_34"><g><use style="stroke:#000;stroke-width:.6" x="170.58" y="295.2" xlink:href="#m89e414f2da"/></g></g></g><g id="xtick_35"><g id="line2d_35"><g><use style="stroke:#000;stroke-width:.6" x="172.904" y="295.2" xlink:href="#m89e414f2da"/></g></g></g><g id="xtick_36"><g id="line2d_36"><g><use style="stroke:#000;stroke-width:.6" x="174.917" y="295.2" xlink:href="#m89e414f2da"/></g></g></g><g id="xtick_37"><g id="line2d_37"><g><use style="stroke:#000;stroke-width:.6" x="176.693" y="295.2" xlink:href="#m89e414f2da"/></g></g></g><g id="xtick_38"><g id="line2d_38"><g><use style="stroke:#000;stroke-width:.6" x="188.731" y="295.2" xlink:href="#m89e414f2da"/></g></g></g><g id="xtick_39"><g id="line2d_39"><g><use style="stroke:#000;stroke-width:.6" x="194.844" y="295.2" xlink:href="#m89e414f2da"/></g></g></g><g id="xtick_40"><g id="line2d_40"><g><use style="stroke:#000;stroke-width:.6" x="199.181" y="295.2" xlink:href="#m89e414f2da"/></g></g></g><g id="xtick_41"><g id="line2d_41"><g><use style="stroke:#000;stroke-width:.6" x="202.545" y="295.2" xlink:href="#m89e414f2da"/></g></g></g><g id="xtick_42"><g id="line2d_42"><g><use style="stroke:#000;stroke-width:.6" x="205.293" y="295.2" xlink:href="#m89e414f2da"/></g></g></g><g id="xtick_43"><g id="line2d_43"><g><use style="stroke:#000;stroke-width:.6" x="207.617" y="295.2" xlink:href="#m89e414f2da"/></g></g></g><g id="xtick_44"><g id="line2d_44"><g><use style="stroke:#000;stroke-width:.6" x="209.63" y="295.2" xlink:href="#m89e414f2da"/></g></g></g><g id="xtick_45"><g id="line2d_45"><g><use style="stroke:#000;stroke-width:.6" x="211.406" y="295.2" xlink:href="#m89e414f2da"/></g></g></g><g id="xtick_46"><g id="line2d_46"><g><use style="stroke:#000;stroke-width:.6" x="223.444" y="295.2" xlink:href="#m89e414f2da"/></g></g></g><g id="xtick_47"><g id="line2d_47"><g><use style="stroke:#000;stroke-width:.6" x="229.557" y="295.2" xlink:href="#m89e414f2da"/></g></g></g><g id="xtick_48"><g id="line2d_48"><g><use style="stroke:#000;stroke-width:.6" x="233.894" y="295.2" xlink:href="#m89e414f2da"/></g></g></g><g id="xtick_49"><g id="line2d_49"><g><use style="stroke:#000;stroke-width:.6" x="237.258" y="295.2" xlink:href="#m89e414f2da"/></g></g></g><g id="xtick_50"><g id="line2d_50"><g><use style="stroke:#000;stroke-width:.6" x="240.007" y="295.2" xlink:href="#m89e414f2da"/></g></g></g><g id="xtick_51"><g id="line2d_51"><g><use style="stroke:#000;stroke-width:.6" x="242.331" y="295.2" xlink:href="#m89e414f2da"/></g></g></g><g id="xtick_52"><g id="line2d_52"><g><use style="stroke:#000;stroke-width:.6" x="244.344" y="295.2" xlink:href="#m89e414f2da"/></g></g></g><g id="xtick_53"><g id="line2d_53"><g><use style="stroke:#000;stroke-width:.6" x="246.119" y="295.2" xlink:href="#m89e414f2da"/></g></g></g><g id="xtick_54"><g id="line2d_54"><g><use style="stroke:#000;stroke-width:.6" x="258.158" y="295.2" xlink:href="#m89e414f2da"/></g></g></g><g id="xtick_55"><g id="line2d_55"><g><use style="stroke:#000;stroke-width:.6" x="264.27" y="295.2" xlink:href="#m89e414f2da"/></g></g></g><g id="xtick_56"><g id="line2d_56"><g><use style="stroke:#000;stroke-width:.6" x="268.607" y="295.2" xlink:href="#m89e414f2da"/></g></g></g></g><g id="matplotlib.axis_2"><g id="ytick_1"><g id="line2d_57"><defs><path id="mc95c05c8a2" d="M 0 0 L -3.5 0" style="stroke:#000;stroke-width:.8"/></defs><g><use style="stroke:#000;stroke-width:.8" x="50.4" y="241.846" xlink:href="#mc95c05c8a2"/></g></g><g id="text_7"><g transform="translate(25.8 245.645653)scale(0.1 -0.1)"><use transform="translate(0 0.765625)" xlink:href="#DejaVuSans-49"/><use transform="translate(63.623047 0.765625)" xlink:href="#DejaVuSans-48"/><use transform="translate(128.203125 39.046875)scale(0.7)" xlink:href="#DejaVuSans-48"/></g></g></g><g id="ytick_2"><g id="line2d_58"><g><use style="stroke:#000;stroke-width:.8" x="50.4" y="130.674" xlink:href="#mc95c05c8a2"/></g></g><g id="text_8"><g transform="translate(25.8 134.473047)scale(0.1 -0.1)"><use transform="translate(0 0.684375)" xlink:href="#DejaVuSans-49"/><use transform="translate(63.623047 0.684375)" xlink:href="#DejaVuSans-48"/><use transform="translate(128.203125 38.965625)scale(0.7)" xlink:href="#DejaVuSans-49"/></g></g></g><g id="ytick_3"><g id="line2d_59"><defs><path id="m4f0c982327" d="M 0 0 L -2 0" style="stroke:#000;stroke-width:.6"/></defs><g><use style="stroke:#000;stroke-width:.6" x="50.4" y="286.086" xlink:href="#m4f0c982327"/></g></g></g><g id="ytick_4"><g id="line2d_60"><g><use style="stroke:#000;stroke-width:.6" x="50.4" y="275.313" xlink:href="#m4f0c982327"/></g></g></g><g id="ytick_5"><g id="line2d_61"><g><use style="stroke:#000;stroke-width:.6" x="50.4" y="266.51" xlink:href="#m4f0c982327"/></g></g></g><g id="ytick_6"><g id="line2d_62"><g><use style="stroke:#000;stroke-width:.6" x="50.4" y="259.067" xlink:href="#m4f0c982327"/></g></g></g><g id="ytick_7"><g id="line2d_63"><g><use style="stroke:#000;stroke-width:.6" x="50.4" y="252.62" xlink:href="#m4f0c982327"/></g></g></g><g id="ytick_8"><g id="line2d_64"><g><use style="stroke:#000;stroke-width:.6" x="50.4" y="246.933" xlink:href="#m4f0c982327"/></g></g></g><g id="ytick_9"><g id="line2d_65"><g><use style="stroke:#000;stroke-width:.6" x="50.4" y="208.38" xlink:href="#m4f0c982327"/></g></g></g><g id="ytick_10"><g id="line2d_66"><g><use style="stroke:#000;stroke-width:.6" x="50.4" y="188.804" xlink:href="#m4f0c982327"/></g></g></g><g id="ytick_11"><g id="line2d_67"><g><use style="stroke:#000;stroke-width:.6" x="50.4" y="174.914" xlink:href="#m4f0c982327"/></g></g></g><g id="ytick_12"><g id="line2d_68"><g><use style="stroke:#000;stroke-width:.6" x="50.4" y="164.14" xlink:href="#m4f0c982327"/></g></g></g><g id="ytick_13"><g id="line2d_69"><g><use style="stroke:#000;stroke-width:.6" x="50.4" y="155.337" xlink:href="#m4f0c982327"/></g></g></g><g id="ytick_14"><g id="line2d_70"><g><use style="stroke:#000;stroke-width:.6" x="50.4" y="147.895" xlink:href="#m4f0c982327"/></g></g></g><g id="ytick_15"><g id="line2d_71"><g><use style="stroke:#000;stroke-width:.6" x="50.4" y="141.448" xlink:href="#m4f0c982327"/></g></g></g><g id="ytick_16"><g id="line2d_72"><g><use style="stroke:#000;stroke-width:.6" x="50.4" y="135.761" xlink:href="#m4f0c982327"/></g></g></g><g id="ytick_17"><g id="line2d_73"><g><use style="stroke:#000;stroke-width:.6" x="50.4" y="97.208" xlink:href="#m4f0c982327"/></g></g></g><g id="ytick_18"><g id="line2d_74"><g><use style="stroke:#000;stroke-width:.6" x="50.4" y="77.631" xlink:href="#m4f0c982327"/></g></g></g><g id="ytick_19"><g id="line2d_75"><g><use style="stroke:#000;stroke-width:.6" x="50.4" y="63.741" xlink:href="#m4f0c982327"/></g></g></g><g id="text_9"><defs><path id="DejaVuSans-67" d="M 64.40625 67.28125 L 64.40625 56.890625 Q 59.421875 61.53125 53.78125 63.8125 Q 48.140625 66.109375 41.796875 66.109375 Q 29.296875 66.109375 22.65625 58.46875 Q 16.015625 50.828125 16.015625 36.375 Q 16.015625 21.96875 22.65625 14.328125 Q 29.296875 6.6875 41.796875 6.6875 Q 48.140625 6.6875 53.78125 8.984375 Q 59.421875 11.28125 64.40625 15.921875 L 64.40625 5.609375 Q 59.234375 2.09375 53.4375 0.328125 Q 47.65625 -1.421875 41.21875 -1.421875 Q 24.65625 -1.421875 15.125 8.703125 Q 5.609375 18.84375 5.609375 36.375 Q 5.609375 53.953125 15.125 64.078125 Q 24.65625 74.21875 41.21875 74.21875 Q 47.75 74.21875 53.53125 72.484375 Q 59.328125 70.75 64.40625 67.28125 z"/><path id="DejaVuSans-80" d="M 19.671875 64.796875 L 19.671875 37.40625 L 32.078125 37.40625 Q 38.96875 37.40625 42.71875 40.96875 Q 46.484375 44.53125 46.484375 51.125 Q 46.484375 57.671875 42.71875 61.234375 Q 38.96875 64.796875 32.078125 64.796875 z M 9.8125 72.90625 L 32.078125 72.90625 Q 44.34375 72.90625 50.609375 67.359375 Q 56.890625 61.8125 56.890625 51.125 Q 56.890625 40.328125 50.609375 34.8125 Q 44.34375 29.296875 32.078125 29.296875 L 19.671875 29.296875 L 19.671875 0 L 9.8125 0 z"/><path id="DejaVuSans-85" d="M 8.6875 72.90625 L 18.609375 72.90625 L 18.609375 28.609375 Q 18.609375 16.890625 22.84375 11.734375 Q 27.09375 6.59375 36.625 6.59375 Q 46.09375 6.59375 50.34375 11.734375 Q 54.59375 16.890625 54.59375 28.609375 L 54.59375 72.90625 L 64.5 72.90625 L 64.5 27.390625 Q 64.5 13.140625 57.4375 5.859375 Q 50.390625 -1.421875 36.625 -1.421875 Q 22.796875 -1.421875 15.734375 5.859375 Q 8.6875 13.140625 8.6875 27.390625 z"/><path id="DejaVuSans-32"/><path id="DejaVuSans-116" d="M 18.3125 70.21875 L 18.3125 54.6875 L 36.8125 54.6875 L 36.8125 47.703125 L 18.3125 47.703125 L 18.3125 18.015625 Q 18.3125 11.328125 20.140625 9.421875 Q 21.96875 7.515625 27.59375 7.515625 L 36.8125 7.515625 L 36.8125 0 L 27.59375 0 Q 17.1875 0 13.234375 3.875 Q 9.28125 7.765625 9.28125 18.015625 L 9.28125 47.703125 L 2.6875 47.703125 L 2.6875 54.6875 L 9.28125 54.6875 L 9.28125 70.21875 z"/><path id="DejaVuSans-105" d="M 9.421875 54.6875 L 18.40625 54.6875 L 18.40625 0 L 9.421875 0 z M 9.421875 75.984375 L 18.40625 75.984375 L 18.40625 64.59375 L 9.421875 64.59375 z"/><path id="DejaVuSans-109" d="M 52 44.1875 Q 55.375 50.25 60.0625 53.125 Q 64.75 56 71.09375 56 Q 79.640625 56 84.28125 50.015625 Q 88.921875 44.046875 88.921875 33.015625 L 88.921875 0 L 79.890625 0 L 79.890625 32.71875 Q 79.890625 40.578125 77.09375 44.375 Q 74.3125 48.1875 68.609375 48.1875 Q 61.625 48.1875 57.5625 43.546875 Q 53.515625 38.921875 53.515625 30.90625 L 53.515625 0 L 44.484375 0 L 44.484375 32.71875 Q 44.484375 40.625 41.703125 44.40625 Q 38.921875 48.1875 33.109375 48.1875 Q 26.21875 48.1875 22.15625 43.53125 Q 18.109375 38.875 18.109375 30.90625 L 18.109375 0 L 9.078125 0 L 9.078125 54.6875 L 18.109375 54.6875 L 18.109375 46.1875 Q 21.1875 51.21875 25.484375 53.609375 Q 29.78125 56 35.6875 56 Q 41.65625 56 45.828125 52.96875 Q 50 49.953125 52 44.1875 z"/><path id="DejaVuSans-101" d="M 56.203125 29.59375 L 56.203125 25.203125 L 14.890625 25.203125 Q 15.484375 15.921875 20.484375 11.0625 Q 25.484375 6.203125 34.421875 6.203125 Q 39.59375 6.203125 44.453125 7.46875 Q 49.3125 8.734375 54.109375 11.28125 L 54.109375 2.78125 Q 49.265625 0.734375 44.1875 -0.34375 Q 39.109375 -1.421875 33.890625 -1.421875 Q 20.796875 -1.421875 13.15625 6.1875 Q 5.515625 13.8125 5.515625 26.8125 Q 5.515625 40.234375 12.765625 48.109375 Q 20.015625 56 32.328125 56 Q 43.359375 56 49.78125 48.890625 Q 56.203125 41.796875 56.203125 29.59375 z M 47.21875 32.234375 Q 47.125 39.59375 43.09375 43.984375 Q 39.0625 48.390625 32.421875 48.390625 Q 24.90625 48.390625 20.390625 44.140625 Q 15.875 39.890625 15.1875 32.171875 z"/><path id="DejaVuSans-110" d="M 54.890625 33.015625 L 54.890625 0 L 45.90625 0 L 45.90625 32.71875 Q 45.90625 40.484375 42.875 44.328125 Q 39.84375 48.1875 33.796875 48.1875 Q 26.515625 48.1875 22.3125 43.546875 Q 18.109375 38.921875 18.109375 30.90625 L 18.109375 0 L 9.078125 0 L 9.078125 54.6875 L 18.109375 54.6875 L 18.109375 46.1875 Q 21.34375 51.125 25.703125 53.5625 Q 30.078125 56 35.796875 56 Q 45.21875 56 50.046875 50.171875 Q 54.890625 44.34375 54.890625 33.015625 z"/><path id="DejaVuSans-115" d="M 44.28125 53.078125 L 44.28125 44.578125 Q 40.484375 46.53125 36.375 47.5 Q 32.28125 48.484375 27.875 48.484375 Q 21.1875 48.484375 17.84375 46.4375 Q 14.5 44.390625 14.5 40.28125 Q 14.5 37.15625 16.890625 35.375 Q 19.28125 33.59375 26.515625 31.984375 L 29.59375 31.296875 Q 39.15625 29.25 43.1875 25.515625 Q 47.21875 21.78125 47.21875 15.09375 Q 47.21875 7.46875 41.1875 3.015625 Q 35.15625 -1.421875 24.609375 -1.421875 Q 20.21875 -1.421875 15.453125 -0.5625 Q 10.6875 0.296875 5.421875 2 L 5.421875 11.28125 Q 10.40625 8.6875 15.234375 7.390625 Q 20.0625 6.109375 24.8125 6.109375 Q 31.15625 6.109375 34.5625 8.28125 Q 37.984375 10.453125 37.984375 14.40625 Q 37.984375 18.0625 35.515625 20.015625 Q 33.0625 21.96875 24.703125 23.78125 L 21.578125 24.515625 Q 13.234375 26.265625 9.515625 29.90625 Q 5.8125 33.546875 5.8125 39.890625 Q 5.8125 47.609375 11.28125 51.796875 Q 16.75 56 26.8125 56 Q 31.78125 56 36.171875 55.265625 Q 40.578125 54.546875 44.28125 53.078125 z"/><path id="DejaVuSans-112" d="M 18.109375 8.203125 L 18.109375 -20.796875 L 9.078125 -20.796875 L 9.078125 54.6875 L 18.109375 54.6875 L 18.109375 46.390625 Q 20.953125 51.265625 25.265625 53.625 Q 29.59375 56 35.59375 56 Q 45.5625 56 51.78125 48.09375 Q 58.015625 40.1875 58.015625 27.296875 Q 58.015625 14.40625 51.78125 6.484375 Q 45.5625 -1.421875 35.59375 -1.421875 Q 29.59375 -1.421875 25.265625 0.953125 Q 20.953125 3.328125 18.109375 8.203125 z M 48.6875 27.296875 Q 48.6875 37.203125 44.609375 42.84375 Q 40.53125 48.484375 33.40625 48.484375 Q 26.265625 48.484375 22.1875 42.84375 Q 18.109375 37.203125 18.109375 27.296875 Q 18.109375 17.390625 22.1875 11.75 Q 26.265625 6.109375 33.40625 6.109375 Q 40.53125 6.109375 44.609375 11.75 Q 48.6875 17.390625 48.6875 27.296875 z"/><path id="DejaVuSans-114" d="M 41.109375 46.296875 Q 39.59375 47.171875 37.8125 47.578125 Q 36.03125 48 33.890625 48 Q 26.265625 48 22.1875 43.046875 Q 18.109375 38.09375 18.109375 28.8125 L 18.109375 0 L 9.078125 0 L 9.078125 54.6875 L 18.109375 54.6875 L 18.109375 46.1875 Q 20.953125 51.171875 25.484375 53.578125 Q 30.03125 56 36.53125 56 Q 37.453125 56 38.578125 55.875 Q 39.703125 55.765625 41.0625 55.515625 z"/><path id="DejaVuSans-98" d="M 48.6875 27.296875 Q 48.6875 37.203125 44.609375 42.84375 Q 40.53125 48.484375 33.40625 48.484375 Q 26.265625 48.484375 22.1875 42.84375 Q 18.109375 37.203125 18.109375 27.296875 Q 18.109375 17.390625 22.1875 11.75 Q 26.265625 6.109375 33.40625 6.109375 Q 40.53125 6.109375 44.609375 11.75 Q 48.6875 17.390625 48.6875 27.296875 z M 18.109375 46.390625 Q 20.953125 51.265625 25.265625 53.625 Q 29.59375 56 35.59375 56 Q 45.5625 56 51.78125 48.09375 Q 58.015625 40.1875 58.015625 27.296875 Q 58.015625 14.40625 51.78125 6.484375 Q 45.5625 -1.421875 35.59375 -1.421875 Q 29.59375 -1.421875 25.265625 0.953125 Q 20.953125 3.328125 18.109375 8.203125 L 18.109375 0 L 9.078125 0 L 9.078125 75.984375 L 18.109375 75.984375 z"/></defs><g transform="translate(19.720312 230.376563)rotate(-90)scale(0.1 -0.1)"><use xlink:href="#DejaVuSans-67"/><use x="69.824" xlink:href="#DejaVuSans-80"/><use x="130.127" xlink:href="#DejaVuSans-85"/><use x="203.32" xlink:href="#DejaVuSans-32"/><use x="235.107" xlink:href="#DejaVuSans-116"/><use x="274.316" xlink:href="#DejaVuSans-105"/><use x="302.1" xlink:href="#DejaVuSans-109"/><use x="399.512" xlink:href="#DejaVuSans-101"/><use x="461.035" xlink:href="#DejaVuSans-32"/><use x="492.822" xlink:href="#DejaVuSans-105"/><use x="520.605" xlink:href="#DejaVuSans-110"/><use x="583.984" xlink:href="#DejaVuSans-32"/><use x="615.771" xlink:href="#DejaVuSans-110"/><use x="679.15" xlink:href="#DejaVuSans-115"/><use x="731.25" xlink:href="#DejaVuSans-32"/><use x="763.037" xlink:href="#DejaVuSans-112"/><use x="826.514" xlink:href="#DejaVuSans-101"/><use x="888.037" xlink:href="#DejaVuSans-114"/><use x="929.15" xlink:href="#DejaVuSans-32"/><use x="960.938" xlink:href="#DejaVuSans-98"/><use x="1024.414" xlink:href="#DejaVuSans-105"/><use x="1052.197" xlink:href="#DejaVuSans-110"/></g></g></g><g id="line2d_76"><path d="M 60.327273 222.592865 L 70.777033 219.153884 L 81.226794 212.307647 L 91.676555 204.958612 L 102.126316 195.250737 L 112.576077 197.455762" clip-path="url(#p2b0e5ff15b)" style="fill:none;stroke:red;stroke-dasharray:3.7,1.6;stroke-dashoffset:0"/></g><g id="line2d_77"><path d="M 60.327273 272.046052 L 70.777033 267.321413 L 81.226794 276.165132 L 91.676555 253.572504 L 102.126316 277.789248 L 112.576077 284.236364" clip-path="url(#p2b0e5ff15b)" style="fill:none;stroke:#00f;stroke-dasharray:1,1.65;stroke-dashoffset:0"/></g><g id="line2d_78"><path d="M 81.226794 187.808088 L 102.126316 189.820114 L 123.025837 190.924114 L 143.925359 191.187589 L 164.82488 190.287854 L 185.724402 190.757101" clip-path="url(#p2b0e5ff15b)" style="fill:none;stroke:red;stroke-dasharray:7.4,3.2;stroke-dashoffset:0;stroke-width:2"/></g><g id="line2d_79"><path d="M 81.226794 203.097419 L 102.126316 218.871809 L 123.025837 217.145225 L 143.925359 216.36014 L 164.82488 197.268114 L 185.724402 199.364916" clip-path="url(#p2b0e5ff15b)" style="fill:none;stroke:#00f;stroke-dasharray:2,3.3;stroke-dashoffset:0;stroke-width:2"/></g><g id="line2d_80"><path d="M 102.126316 144.063261 L 133.475598 145.005678 L 164.82488 146.083496 L 196.174163 146.548792 L 227.523445 146.070497 L 258.872727 146.643128" clip-path="url(#p2b0e5ff15b)" style="fill:none;stroke:red;stroke-dasharray:11.1,4.8;stroke-dashoffset:0;stroke-width:3"/></g><g id="line2d_81"><path d="M 102.126316 213.972696 L 133.475598 218.98914 L 164.82488 223.632741 L 196.174163 202.734004 L 227.523445 205.18963 L 258.872727 206.707251" clip-path="url(#p2b0e5ff15b)" style="fill:none;stroke:#00f;stroke-dasharray:3,4.95;stroke-dashoffset:0;stroke-width:3"/></g><g id="patch_3"><path d="M 50.4 295.2 L 50.4 54" style="fill:none;stroke:#000;stroke-linecap:square;stroke-linejoin:miter;stroke-width:.8"/></g><g id="patch_4"><path d="M 268.8 295.2 L 268.8 54" style="fill:none;stroke:#000;stroke-linecap:square;stroke-linejoin:miter;stroke-width:.8"/></g><g id="patch_5"><path d="M 50.4 295.2 L 268.8 295.2" style="fill:none;stroke:#000;stroke-linecap:square;stroke-linejoin:miter;stroke-width:.8"/></g><g id="patch_6"><path d="M 50.4 54 L 268.8 54" style="fill:none;stroke:#000;stroke-linecap:square;stroke-linejoin:miter;stroke-width:.8"/></g><g id="text_10"><defs><path id="DejaVuSans-117" d="M 8.5 21.578125 L 8.5 54.6875 L 17.484375 54.6875 L 17.484375 21.921875 Q 17.484375 14.15625 20.5 10.265625 Q 23.53125 6.390625 29.59375 6.390625 Q 36.859375 6.390625 41.078125 11.03125 Q 45.3125 15.671875 45.3125 23.6875 L 45.3125 54.6875 L 54.296875 54.6875 L 54.296875 0 L 45.3125 0 L 45.3125 8.40625 Q 42.046875 3.421875 37.71875 1 Q 33.40625 -1.421875 27.6875 -1.421875 Q 18.265625 -1.421875 13.375 4.4375 Q 8.5 10.296875 8.5 21.578125 z M 31.109375 56 z"/><path id="DejaVuSans-108" d="M 9.421875 75.984375 L 18.40625 75.984375 L 18.40625 0 L 9.421875 0 z"/></defs><g transform="translate(144.2775 43.176)scale(0.12 -0.12)"><use xlink:href="#DejaVuSans-116"/><use x="39.209" xlink:href="#DejaVuSans-117"/><use x="102.588" xlink:href="#DejaVuSans-112"/><use x="166.064" xlink:href="#DejaVuSans-108"/><use x="193.848" xlink:href="#DejaVuSans-101"/></g></g><g id="legend_1"><g id="line2d_82"><path d="M 73.092 63.090316 L 100.852 63.090316" style="fill:none;stroke:#00f;stroke-dasharray:1,1.65;stroke-dashoffset:0"/></g><g id="text_11"><defs><path id="DejaVuSans-100" d="M 45.40625 46.390625 L 45.40625 75.984375 L 54.390625 75.984375 L 54.390625 0 L 45.40625 0 L 45.40625 8.203125 Q 42.578125 3.328125 38.25 0.953125 Q 33.9375 -1.421875 27.875 -1.421875 Q 17.96875 -1.421875 11.734375 6.484375 Q 5.515625 14.40625 5.515625 27.296875 Q 5.515625 40.1875 11.734375 48.09375 Q 17.96875 56 27.875 56 Q 33.9375 56 38.25 53.625 Q 42.578125 51.265625 45.40625 46.390625 z M 14.796875 27.296875 Q 14.796875 17.390625 18.875 11.75 Q 22.953125 6.109375 30.078125 6.109375 Q 37.203125 6.109375 41.296875 11.75 Q 45.40625 17.390625 45.40625 27.296875 Q 45.40625 37.203125 41.296875 42.84375 Q 37.203125 48.484375 30.078125 48.484375 Q 22.953125 48.484375 18.875 42.84375 Q 14.796875 37.203125 14.796875 27.296875 z"/><path id="DejaVuSans-120" d="M 54.890625 54.6875 L 35.109375 28.078125 L 55.90625 0 L 45.3125 0 L 29.390625 21.484375 L 13.484375 0 L 2.875 0 L 24.125 28.609375 L 4.6875 54.6875 L 15.28125 54.6875 L 29.78125 35.203125 L 44.28125 54.6875 z"/><path id="DejaVuSans-58" d="M 11.71875 12.40625 L 22.015625 12.40625 L 22.015625 0 L 11.71875 0 z M 11.71875 51.703125 L 22.015625 51.703125 L 22.015625 39.3125 L 11.71875 39.3125 z"/><path id="DejaVuSans-Oblique-68" d="M 16.890625 72.90625 L 38.09375 72.90625 Q 54.984375 72.90625 63.59375 65.75 Q 72.21875 58.59375 72.21875 44.484375 Q 72.21875 35.15625 68.9375 26.53125 Q 65.671875 17.921875 59.90625 12.015625 Q 54.109375 5.953125 45.171875 2.96875 Q 36.234375 0 24.03125 0 L 2.6875 0 z M 25.203125 64.796875 L 14.203125 8.109375 L 27.09375 8.109375 Q 43.65625 8.109375 52.734375 17.625 Q 61.8125 27.15625 61.8125 44.484375 Q 61.8125 54.984375 55.953125 59.890625 Q 50.09375 64.796875 37.59375 64.796875 z"/><path id="DejaVuSans-61" d="M 10.59375 45.40625 L 73.1875 45.40625 L 73.1875 37.203125 L 10.59375 37.203125 z M 10.59375 25.484375 L 73.1875 25.484375 L 73.1875 17.1875 L 10.59375 17.1875 z"/></defs><g transform="translate(106.404 65.519316)scale(0.0694 -0.0694)"><use transform="translate(0 0.015625)" xlink:href="#DejaVuSans-105"/><use transform="translate(27.783203 0.015625)" xlink:href="#DejaVuSans-110"/><use transform="translate(91.162109 0.015625)" xlink:href="#DejaVuSans-100"/><use transform="translate(154.638672 0.015625)" xlink:href="#DejaVuSans-101"/><use transform="translate(216.162109 0.015625)" xlink:href="#DejaVuSans-120"/><use transform="translate(275.341797 0.015625)" xlink:href="#DejaVuSans-101"/><use transform="translate(336.865234 0.015625)" xlink:href="#DejaVuSans-100"/><use transform="translate(400.341797 0.015625)" xlink:href="#DejaVuSans-58"/><use transform="translate(434.033203 0.015625)" xlink:href="#DejaVuSans-32"/><use transform="translate(465.820312 0.015625)" xlink:href="#DejaVuSans-Oblique-68"/><use transform="translate(562.304688 0.015625)" xlink:href="#DejaVuSans-61"/><use transform="translate(665.576172 0.015625)" xlink:href="#DejaVuSans-49"/></g></g><g id="line2d_84"><path d="M 73.092 73.276934 L 100.852 73.276934" style="fill:none;stroke:#00f;stroke-dasharray:2,3.3;stroke-dashoffset:0;stroke-width:2"/></g><g id="text_12"><g transform="translate(106.404 75.705934)scale(0.0694 -0.0694)"><use transform="translate(0 0.015625)" xlink:href="#DejaVuSans-105"/><use transform="translate(27.783203 0.015625)" xlink:href="#DejaVuSans-110"/><use transform="translate(91.162109 0.015625)" xlink:href="#DejaVuSans-100"/><use transform="translate(154.638672 0.015625)" xlink:href="#DejaVuSans-101"/><use transform="translate(216.162109 0.015625)" xlink:href="#DejaVuSans-120"/><use transform="translate(275.341797 0.015625)" xlink:href="#DejaVuSans-101"/><use transform="translate(336.865234 0.015625)" xlink:href="#DejaVuSans-100"/><use transform="translate(400.341797 0.015625)" xlink:href="#DejaVuSans-58"/><use transform="translate(434.033203 0.015625)" xlink:href="#DejaVuSans-32"/><use transform="translate(465.820312 0.015625)" xlink:href="#DejaVuSans-Oblique-68"/><use transform="translate(562.304688 0.015625)" xlink:href="#DejaVuSans-61"/><use transform="translate(665.576172 0.015625)" xlink:href="#DejaVuSans-50"/></g></g><g id="line2d_86"><path d="M 73.092 83.463553 L 100.852 83.463553" style="fill:none;stroke:#00f;stroke-dasharray:3,4.95;stroke-dashoffset:0;stroke-width:3"/></g><g id="text_13"><g transform="translate(106.404 85.892553)scale(0.0694 -0.0694)"><use transform="translate(0 0.015625)" xlink:href="#DejaVuSans-105"/><use transform="translate(27.783203 0.015625)" xlink:href="#DejaVuSans-110"/><use transform="translate(91.162109 0.015625)" xlink:href="#DejaVuSans-100"/><use transform="translate(154.638672 0.015625)" xlink:href="#DejaVuSans-101"/><use transform="translate(216.162109 0.015625)" xlink:href="#DejaVuSans-120"/><use transform="translate(275.341797 0.015625)" xlink:href="#DejaVuSans-101"/><use transform="translate(336.865234 0.015625)" xlink:href="#DejaVuSans-100"/><use transform="translate(400.341797 0.015625)" xlink:href="#DejaVuSans-58"/><use transform="translate(434.033203 0.015625)" xlink:href="#DejaVuSans-32"/><use transform="translate(465.820312 0.015625)" xlink:href="#DejaVuSans-Oblique-68"/><use transform="translate(562.304688 0.015625)" xlink:href="#DejaVuSans-61"/><use transform="translate(665.576172 0.015625)" xlink:href="#DejaVuSans-51"/></g></g><g id="line2d_88"><path d="M 170.946 63.090316 L 198.706 63.090316" style="fill:none;stroke:red;stroke-dasharray:3.7,1.6;stroke-dashoffset:0"/></g><g id="text_14"><defs><path id="DejaVuSans-102" d="M 37.109375 75.984375 L 37.109375 68.5 L 28.515625 68.5 Q 23.6875 68.5 21.796875 66.546875 Q 19.921875 64.59375 19.921875 59.515625 L 19.921875 54.6875 L 34.71875 54.6875 L 34.71875 47.703125 L 19.921875 47.703125 L 19.921875 0 L 10.890625 0 L 10.890625 47.703125 L 2.296875 47.703125 L 2.296875 54.6875 L 10.890625 54.6875 L 10.890625 58.5 Q 10.890625 67.625 15.140625 71.796875 Q 19.390625 75.984375 28.609375 75.984375 z"/><path id="DejaVuSans-111" d="M 30.609375 48.390625 Q 23.390625 48.390625 19.1875 42.75 Q 14.984375 37.109375 14.984375 27.296875 Q 14.984375 17.484375 19.15625 11.84375 Q 23.34375 6.203125 30.609375 6.203125 Q 37.796875 6.203125 41.984375 11.859375 Q 46.1875 17.53125 46.1875 27.296875 Q 46.1875 37.015625 41.984375 42.703125 Q 37.796875 48.390625 30.609375 48.390625 z M 30.609375 56 Q 42.328125 56 49.015625 48.375 Q 55.71875 40.765625 55.71875 27.296875 Q 55.71875 13.875 49.015625 6.21875 Q 42.328125 -1.421875 30.609375 -1.421875 Q 18.84375 -1.421875 12.171875 6.21875 Q 5.515625 13.875 5.515625 27.296875 Q 5.515625 40.765625 12.171875 48.375 Q 18.84375 56 30.609375 56 z"/></defs><g transform="translate(204.258 65.519316)scale(0.0694 -0.0694)"><use transform="translate(0 0.015625)" xlink:href="#DejaVuSans-110"/><use transform="translate(63.378906 0.015625)" xlink:href="#DejaVuSans-101"/><use transform="translate(124.902344 0.015625)" xlink:href="#DejaVuSans-115"/><use transform="translate(177.001953 0.015625)" xlink:href="#DejaVuSans-116"/><use transform="translate(216.210938 0.015625)" xlink:href="#DejaVuSans-101"/><use transform="translate(277.734375 0.015625)" xlink:href="#DejaVuSans-100"/><use transform="translate(341.210938 0.015625)" xlink:href="#DejaVuSans-32"/><use transform="translate(372.998047 0.015625)" xlink:href="#DejaVuSans-102"/><use transform="translate(408.203125 0.015625)" xlink:href="#DejaVuSans-111"/><use transform="translate(469.384766 0.015625)" xlink:href="#DejaVuSans-114"/><use transform="translate(510.498047 0.015625)" xlink:href="#DejaVuSans-58"/><use transform="translate(544.189453 0.015625)" xlink:href="#DejaVuSans-32"/><use transform="translate(575.976562 0.015625)" xlink:href="#DejaVuSans-Oblique-68"/><use transform="translate(672.460938 0.015625)" xlink:href="#DejaVuSans-61"/><use transform="translate(775.732422 0.015625)" xlink:href="#DejaVuSans-49"/></g></g><g id="line2d_90"><path d="M 170.946 73.276934 L 198.706 73.276934" style="fill:none;stroke:red;stroke-dasharray:7.4,3.2;stroke-dashoffset:0;stroke-width:2"/></g><g id="text_15"><g transform="translate(204.258 75.705934)scale(0.0694 -0.0694)"><use transform="translate(0 0.015625)" xlink:href="#DejaVuSans-110"/><use transform="translate(63.378906 0.015625)" xlink:href="#DejaVuSans-101"/><use transform="translate(124.902344 0.015625)" xlink:href="#DejaVuSans-115"/><use transform="translate(177.001953 0.015625)" xlink:href="#DejaVuSans-116"/><use transform="translate(216.210938 0.015625)" xlink:href="#DejaVuSans-101"/><use transform="translate(277.734375 0.015625)" xlink:href="#DejaVuSans-100"/><use transform="translate(341.210938 0.015625)" xlink:href="#DejaVuSans-32"/><use transform="translate(372.998047 0.015625)" xlink:href="#DejaVuSans-102"/><use transform="translate(408.203125 0.015625)" xlink:href="#DejaVuSans-111"/><use transform="translate(469.384766 0.015625)" xlink:href="#DejaVuSans-114"/><use transform="translate(510.498047 0.015625)" xlink:href="#DejaVuSans-58"/><use transform="translate(544.189453 0.015625)" xlink:href="#DejaVuSans-32"/><use transform="translate(575.976562 0.015625)" xlink:href="#DejaVuSans-Oblique-68"/><use transform="translate(672.460938 0.015625)" xlink:href="#DejaVuSans-61"/><use transform="translate(775.732422 0.015625)" xlink:href="#DejaVuSans-50"/></g></g><g id="line2d_92"><path d="M 170.946 83.463553 L 198.706 83.463553" style="fill:none;stroke:red;stroke-dasharray:11.1,4.8;stroke-dashoffset:0;stroke-width:3"/></g><g id="text_16"><g transform="translate(204.258 85.892553)scale(0.0694 -0.0694)"><use transform="translate(0 0.015625)" xlink:href="#DejaVuSans-110"/><use transform="translate(63.378906 0.015625)" xlink:href="#DejaVuSans-101"/><use transform="translate(124.902344 0.015625)" xlink:href="#DejaVuSans-115"/><use transform="translate(177.001953 0.015625)" xlink:href="#DejaVuSans-116"/><use transform="translate(216.210938 0.015625)" xlink:href="#DejaVuSans-101"/><use transform="translate(277.734375 0.015625)" xlink:href="#DejaVuSans-100"/><use transform="translate(341.210938 0.015625)" xlink:href="#DejaVuSans-32"/><use transform="translate(372.998047 0.015625)" xlink:href="#DejaVuSans-102"/><use transform="translate(408.203125 0.015625)" xlink:href="#DejaVuSans-111"/><use transform="translate(469.384766 0.015625)" xlink:href="#DejaVuSans-114"/><use transform="translate(510.498047 0.015625)" xlink:href="#DejaVuSans-58"/><use transform="translate(544.189453 0.015625)" xlink:href="#DejaVuSans-32"/><use transform="translate(575.976562 0.015625)" xlink:href="#DejaVuSans-Oblique-68"/><use transform="translate(672.460938 0.015625)" xlink:href="#DejaVuSans-61"/><use transform="translate(775.732422 0.015625)" xlink:href="#DejaVuSans-51"/></g></g></g></g><g id="axes_2"><g id="patch_7"><path d="M 268.8 295.2 L 487.2 295.2 L 487.2 54 L 268.8 54 z" style="fill:#fff"/></g><g id="matplotlib.axis_3"><g id="xtick_57"><g id="line2d_94"><g><use style="stroke:#000;stroke-width:.8" x="292.541" y="295.2" xlink:href="#m482e982188"/></g></g><g id="text_17"><g transform="translate(283.741105 309.798437)scale(0.1 -0.1)"><use transform="translate(0 0.684375)" xlink:href="#DejaVuSans-49"/><use transform="translate(63.623047 0.684375)" xlink:href="#DejaVuSans-48"/><use transform="translate(128.203125 38.965625)scale(0.7)" xlink:href="#DejaVuSans-49"/></g></g></g><g id="xtick_58"><g id="line2d_95"><g><use style="stroke:#000;stroke-width:.8" x="327.254" y="295.2" xlink:href="#m482e982188"/></g></g><g id="text_18"><g transform="translate(318.454459 309.798437)scale(0.1 -0.1)"><use transform="translate(0 0.765625)" xlink:href="#DejaVuSans-49"/><use transform="translate(63.623047 0.765625)" xlink:href="#DejaVuSans-48"/><use transform="translate(128.203125 39.046875)scale(0.7)" xlink:href="#DejaVuSans-50"/></g></g></g><g id="xtick_59"><g id="line2d_96"><g><use style="stroke:#000;stroke-width:.8" x="361.968" y="295.2" xlink:href="#m482e982188"/></g></g><g id="text_19"><g transform="translate(353.167813 309.798437)scale(0.1 -0.1)"><use transform="translate(0 0.765625)" xlink:href="#DejaVuSans-49"/><use transform="translate(63.623047 0.765625)" xlink:href="#DejaVuSans-48"/><use transform="translate(128.203125 39.046875)scale(0.7)" xlink:href="#DejaVuSans-51"/></g></g></g><g id="xtick_60"><g id="line2d_97"><g><use style="stroke:#000;stroke-width:.8" x="396.681" y="295.2" xlink:href="#m482e982188"/></g></g><g id="text_20"><g transform="translate(387.881167 309.798437)scale(0.1 -0.1)"><use transform="translate(0 0.684375)" xlink:href="#DejaVuSans-49"/><use transform="translate(63.623047 0.684375)" xlink:href="#DejaVuSans-48"/><use transform="translate(128.203125 38.965625)scale(0.7)" xlink:href="#DejaVuSans-52"/></g></g></g><g id="xtick_61"><g id="line2d_98"><g><use style="stroke:#000;stroke-width:.8" x="431.395" y="295.2" xlink:href="#m482e982188"/></g></g><g id="text_21"><g transform="translate(422.594521 309.798437)scale(0.1 -0.1)"><use transform="translate(0 0.684375)" xlink:href="#DejaVuSans-49"/><use transform="translate(63.623047 0.684375)" xlink:href="#DejaVuSans-48"/><use transform="translate(128.203125 38.965625)scale(0.7)" xlink:href="#DejaVuSans-53"/></g></g></g><g id="xtick_62"><g id="line2d_99"><g><use style="stroke:#000;stroke-width:.8" x="466.108" y="295.2" xlink:href="#m482e982188"/></g></g><g id="text_22"><g transform="translate(457.307874 309.798437)scale(0.1 -0.1)"><use transform="translate(0 0.765625)" xlink:href="#DejaVuSans-49"/><use transform="translate(63.623047 0.765625)" xlink:href="#DejaVuSans-48"/><use transform="translate(128.203125 39.046875)scale(0.7)" xlink:href="#DejaVuSans-54"/></g></g></g><g id="xtick_63"><g id="line2d_100"><g><use style="stroke:#000;stroke-width:.6" x="274.39" y="295.2" xlink:href="#m89e414f2da"/></g></g></g><g id="xtick_64"><g id="line2d_101"><g><use style="stroke:#000;stroke-width:.6" x="278.727" y="295.2" xlink:href="#m89e414f2da"/></g></g></g><g id="xtick_65"><g id="line2d_102"><g><use style="stroke:#000;stroke-width:.6" x="282.091" y="295.2" xlink:href="#m89e414f2da"/></g></g></g><g id="xtick_66"><g id="line2d_103"><g><use style="stroke:#000;stroke-width:.6" x="284.84" y="295.2" xlink:href="#m89e414f2da"/></g></g></g><g id="xtick_67"><g id="line2d_104"><g><use style="stroke:#000;stroke-width:.6" x="287.164" y="295.2" xlink:href="#m89e414f2da"/></g></g></g><g id="xtick_68"><g id="line2d_105"><g><use style="stroke:#000;stroke-width:.6" x="289.177" y="295.2" xlink:href="#m89e414f2da"/></g></g></g><g id="xtick_69"><g id="line2d_106"><g><use style="stroke:#000;stroke-width:.6" x="290.953" y="295.2" xlink:href="#m89e414f2da"/></g></g></g><g id="xtick_70"><g id="line2d_107"><g><use style="stroke:#000;stroke-width:.6" x="302.991" y="295.2" xlink:href="#m89e414f2da"/></g></g></g><g id="xtick_71"><g id="line2d_108"><g><use style="stroke:#000;stroke-width:.6" x="309.104" y="295.2" xlink:href="#m89e414f2da"/></g></g></g><g id="xtick_72"><g id="line2d_109"><g><use style="stroke:#000;stroke-width:.6" x="313.441" y="295.2" xlink:href="#m89e414f2da"/></g></g></g><g id="xtick_73"><g id="line2d_110"><g><use style="stroke:#000;stroke-width:.6" x="316.805" y="295.2" xlink:href="#m89e414f2da"/></g></g></g><g id="xtick_74"><g id="line2d_111"><g><use style="stroke:#000;stroke-width:.6" x="319.553" y="295.2" xlink:href="#m89e414f2da"/></g></g></g><g id="xtick_75"><g id="line2d_112"><g><use style="stroke:#000;stroke-width:.6" x="321.877" y="295.2" xlink:href="#m89e414f2da"/></g></g></g><g id="xtick_76"><g id="line2d_113"><g><use style="stroke:#000;stroke-width:.6" x="323.89" y="295.2" xlink:href="#m89e414f2da"/></g></g></g><g id="xtick_77"><g id="line2d_114"><g><use style="stroke:#000;stroke-width:.6" x="325.666" y="295.2" xlink:href="#m89e414f2da"/></g></g></g><g id="xtick_78"><g id="line2d_115"><g><use style="stroke:#000;stroke-width:.6" x="337.704" y="295.2" xlink:href="#m89e414f2da"/></g></g></g><g id="xtick_79"><g id="line2d_116"><g><use style="stroke:#000;stroke-width:.6" x="343.817" y="295.2" xlink:href="#m89e414f2da"/></g></g></g><g id="xtick_80"><g id="line2d_117"><g><use style="stroke:#000;stroke-width:.6" x="348.154" y="295.2" xlink:href="#m89e414f2da"/></g></g></g><g id="xtick_81"><g id="line2d_118"><g><use style="stroke:#000;stroke-width:.6" x="351.518" y="295.2" xlink:href="#m89e414f2da"/></g></g></g><g id="xtick_82"><g id="line2d_119"><g><use style="stroke:#000;stroke-width:.6" x="354.267" y="295.2" xlink:href="#m89e414f2da"/></g></g></g><g id="xtick_83"><g id="line2d_120"><g><use style="stroke:#000;stroke-width:.6" x="356.591" y="295.2" xlink:href="#m89e414f2da"/></g></g></g><g id="xtick_84"><g id="line2d_121"><g><use style="stroke:#000;stroke-width:.6" x="358.604" y="295.2" xlink:href="#m89e414f2da"/></g></g></g><g id="xtick_85"><g id="line2d_122"><g><use style="stroke:#000;stroke-width:.6" x="360.379" y="295.2" xlink:href="#m89e414f2da"/></g></g></g><g id="xtick_86"><g id="line2d_123"><g><use style="stroke:#000;stroke-width:.6" x="372.418" y="295.2" xlink:href="#m89e414f2da"/></g></g></g><g id="xtick_87"><g id="line2d_124"><g><use style="stroke:#000;stroke-width:.6" x="378.53" y="295.2" xlink:href="#m89e414f2da"/></g></g></g><g id="xtick_88"><g id="line2d_125"><g><use style="stroke:#000;stroke-width:.6" x="382.867" y="295.2" xlink:href="#m89e414f2da"/></g></g></g><g id="xtick_89"><g id="line2d_126"><g><use style="stroke:#000;stroke-width:.6" x="386.231" y="295.2" xlink:href="#m89e414f2da"/></g></g></g><g id="xtick_90"><g id="line2d_127"><g><use style="stroke:#000;stroke-width:.6" x="388.98" y="295.2" xlink:href="#m89e414f2da"/></g></g></g><g id="xtick_91"><g id="line2d_128"><g><use style="stroke:#000;stroke-width:.6" x="391.304" y="295.2" xlink:href="#m89e414f2da"/></g></g></g><g id="xtick_92"><g id="line2d_129"><g><use style="stroke:#000;stroke-width:.6" x="393.317" y="295.2" xlink:href="#m89e414f2da"/></g></g></g><g id="xtick_93"><g id="line2d_130"><g><use style="stroke:#000;stroke-width:.6" x="395.093" y="295.2" xlink:href="#m89e414f2da"/></g></g></g><g id="xtick_94"><g id="line2d_131"><g><use style="stroke:#000;stroke-width:.6" x="407.131" y="295.2" xlink:href="#m89e414f2da"/></g></g></g><g id="xtick_95"><g id="line2d_132"><g><use style="stroke:#000;stroke-width:.6" x="413.244" y="295.2" xlink:href="#m89e414f2da"/></g></g></g><g id="xtick_96"><g id="line2d_133"><g><use style="stroke:#000;stroke-width:.6" x="417.581" y="295.2" xlink:href="#m89e414f2da"/></g></g></g><g id="xtick_97"><g id="line2d_134"><g><use style="stroke:#000;stroke-width:.6" x="420.945" y="295.2" xlink:href="#m89e414f2da"/></g></g></g><g id="xtick_98"><g id="line2d_135"><g><use style="stroke:#000;stroke-width:.6" x="423.693" y="295.2" xlink:href="#m89e414f2da"/></g></g></g><g id="xtick_99"><g id="line2d_136"><g><use style="stroke:#000;stroke-width:.6" x="426.017" y="295.2" xlink:href="#m89e414f2da"/></g></g></g><g id="xtick_100"><g id="line2d_137"><g><use style="stroke:#000;stroke-width:.6" x="428.03" y="295.2" xlink:href="#m89e414f2da"/></g></g></g><g id="xtick_101"><g id="line2d_138"><g><use style="stroke:#000;stroke-width:.6" x="429.806" y="295.2" xlink:href="#m89e414f2da"/></g></g></g><g id="xtick_102"><g id="line2d_139"><g><use style="stroke:#000;stroke-width:.6" x="441.844" y="295.2" xlink:href="#m89e414f2da"/></g></g></g><g id="xtick_103"><g id="line2d_140"><g><use style="stroke:#000;stroke-width:.6" x="447.957" y="295.2" xlink:href="#m89e414f2da"/></g></g></g><g id="xtick_104"><g id="line2d_141"><g><use style="stroke:#000;stroke-width:.6" x="452.294" y="295.2" xlink:href="#m89e414f2da"/></g></g></g><g id="xtick_105"><g id="line2d_142"><g><use style="stroke:#000;stroke-width:.6" x="455.658" y="295.2" xlink:href="#m89e414f2da"/></g></g></g><g id="xtick_106"><g id="line2d_143"><g><use style="stroke:#000;stroke-width:.6" x="458.407" y="295.2" xlink:href="#m89e414f2da"/></g></g></g><g id="xtick_107"><g id="line2d_144"><g><use style="stroke:#000;stroke-width:.6" x="460.731" y="295.2" xlink:href="#m89e414f2da"/></g></g></g><g id="xtick_108"><g id="line2d_145"><g><use style="stroke:#000;stroke-width:.6" x="462.744" y="295.2" xlink:href="#m89e414f2da"/></g></g></g><g id="xtick_109"><g id="line2d_146"><g><use style="stroke:#000;stroke-width:.6" x="464.519" y="295.2" xlink:href="#m89e414f2da"/></g></g></g><g id="xtick_110"><g id="line2d_147"><g><use style="stroke:#000;stroke-width:.6" x="476.558" y="295.2" xlink:href="#m89e414f2da"/></g></g></g><g id="xtick_111"><g id="line2d_148"><g><use style="stroke:#000;stroke-width:.6" x="482.67" y="295.2" xlink:href="#m89e414f2da"/></g></g></g><g id="xtick_112"><g id="line2d_149"><g><use style="stroke:#000;stroke-width:.6" x="487.007" y="295.2" xlink:href="#m89e414f2da"/></g></g></g></g><g id="matplotlib.axis_4"><g id="ytick_20"><g id="line2d_150"><g><use style="stroke:#000;stroke-width:.8" x="268.8" y="241.846" xlink:href="#mc95c05c8a2"/></g></g></g><g id="ytick_21"><g id="line2d_151"><g><use style="stroke:#000;stroke-width:.8" x="268.8" y="130.674" xlink:href="#mc95c05c8a2"/></g></g></g><g id="ytick_22"><g id="line2d_152"><g><use style="stroke:#000;stroke-width:.6" x="268.8" y="286.086" xlink:href="#m4f0c982327"/></g></g></g><g id="ytick_23"><g id="line2d_153"><g><use style="stroke:#000;stroke-width:.6" x="268.8" y="275.313" xlink:href="#m4f0c982327"/></g></g></g><g id="ytick_24"><g id="line2d_154"><g><use style="stroke:#000;stroke-width:.6" x="268.8" y="266.51" xlink:href="#m4f0c982327"/></g></g></g><g id="ytick_25"><g id="line2d_155"><g><use style="stroke:#000;stroke-width:.6" x="268.8" y="259.067" xlink:href="#m4f0c982327"/></g></g></g><g id="ytick_26"><g id="line2d_156"><g><use style="stroke:#000;stroke-width:.6" x="268.8" y="252.62" xlink:href="#m4f0c982327"/></g></g></g><g id="ytick_27"><g id="line2d_157"><g><use style="stroke:#000;stroke-width:.6" x="268.8" y="246.933" xlink:href="#m4f0c982327"/></g></g></g><g id="ytick_28"><g id="line2d_158"><g><use style="stroke:#000;stroke-width:.6" x="268.8" y="208.38" xlink:href="#m4f0c982327"/></g></g></g><g id="ytick_29"><g id="line2d_159"><g><use style="stroke:#000;stroke-width:.6" x="268.8" y="188.804" xlink:href="#m4f0c982327"/></g></g></g><g id="ytick_30"><g id="line2d_160"><g><use style="stroke:#000;stroke-width:.6" x="268.8" y="174.914" xlink:href="#m4f0c982327"/></g></g></g><g id="ytick_31"><g id="line2d_161"><g><use style="stroke:#000;stroke-width:.6" x="268.8" y="164.14" xlink:href="#m4f0c982327"/></g></g></g><g id="ytick_32"><g id="line2d_162"><g><use style="stroke:#000;stroke-width:.6" x="268.8" y="155.337" xlink:href="#m4f0c982327"/></g></g></g><g id="ytick_33"><g id="line2d_163"><g><use style="stroke:#000;stroke-width:.6" x="268.8" y="147.895" xlink:href="#m4f0c982327"/></g></g></g><g id="ytick_34"><g id="line2d_164"><g><use style="stroke:#000;stroke-width:.6" x="268.8" y="141.448" xlink:href="#m4f0c982327"/></g></g></g><g id="ytick_35"><g id="line2d_165"><g><use style="stroke:#000;stroke-width:.6" x="268.8" y="135.761" xlink:href="#m4f0c982327"/></g></g></g><g id="ytick_36"><g id="line2d_166"><g><use style="stroke:#000;stroke-width:.6" x="268.8" y="97.208" xlink:href="#m4f0c982327"/></g></g></g><g id="ytick_37"><g id="line2d_167"><g><use style="stroke:#000;stroke-width:.6" x="268.8" y="77.631" xlink:href="#m4f0c982327"/></g></g></g><g id="ytick_38"><g id="line2d_168"><g><use style="stroke:#000;stroke-width:.6" x="268.8" y="63.741" xlink:href="#m4f0c982327"/></g></g></g></g><g id="line2d_169"><path d="M 278.727273 184.939027 L 289.177033 184.385121 L 299.626794 185.031966 L 310.076555 185.40552 L 320.526316 183.340907 L 330.976077 180.931799" clip-path="url(#p3bfde87aef)" style="fill:none;stroke:red;stroke-dasharray:3.7,1.6;stroke-dashoffset:0"/></g><g id="line2d_170"><path d="M 278.727273 202.854594 L 289.177033 216.226827 L 299.626794 223.699069 L 310.076555 198.397428 L 320.526316 203.029845 L 330.976077 204.053522" clip-path="url(#p3bfde87aef)" style="fill:none;stroke:#00f;stroke-dasharray:1,1.65;stroke-dashoffset:0"/></g><g id="line2d_171"><path d="M 299.626794 189.615096 L 320.526316 188.552807 L 341.425837 183.061013 L 362.325359 188.055053 L 383.22488 189.00048 L 404.124402 191.803484" clip-path="url(#p3bfde87aef)" style="fill:none;stroke:red;stroke-dasharray:7.4,3.2;stroke-dashoffset:0;stroke-width:2"/></g><g id="line2d_172"><path d="M 299.626794 206.457498 L 320.526316 212.307647 L 341.425837 216.36014 L 362.325359 194.325636 L 383.22488 196.354443 L 404.124402 198.569559" clip-path="url(#p3bfde87aef)" style="fill:none;stroke:#00f;stroke-dasharray:2,3.3;stroke-dashoffset:0;stroke-width:2"/></g><g id="line2d_173"><path d="M 320.526316 138.254983 L 351.875598 141.53015 L 383.22488 142.148088 L 414.574163 142.293506 L 445.923445 139.84041 L 477.272727 140.360254" clip-path="url(#p3bfde87aef)" style="fill:none;stroke:red;stroke-dasharray:11.1,4.8;stroke-dashoffset:0;stroke-width:3"/></g><g id="line2d_174"><path d="M 320.526316 212.307647 L 351.875598 216.471517 L 383.22488 220.639636 L 414.574163 201.455974 L 445.923445 204.632889 L 477.272727 205.61695" clip-path="url(#p3bfde87aef)" style="fill:none;stroke:#00f;stroke-dasharray:3,4.95;stroke-dashoffset:0;stroke-width:3"/></g><g id="patch_8"><path d="M 268.8 295.2 L 268.8 54" style="fill:none;stroke:#000;stroke-linecap:square;stroke-linejoin:miter;stroke-width:.8"/></g><g id="patch_9"><path d="M 487.2 295.2 L 487.2 54" style="fill:none;stroke:#000;stroke-linecap:square;stroke-linejoin:miter;stroke-width:.8"/></g><g id="patch_10"><path d="M 268.8 295.2 L 487.2 295.2" style="fill:none;stroke:#000;stroke-linecap:square;stroke-linejoin:miter;stroke-width:.8"/></g><g id="patch_11"><path d="M 268.8 54 L 487.2 54" style="fill:none;stroke:#000;stroke-linecap:square;stroke-linejoin:miter;stroke-width:.8"/></g><g id="text_23"><defs><path id="DejaVuSans-118" d="M 2.984375 54.6875 L 12.5 54.6875 L 29.59375 8.796875 L 46.6875 54.6875 L 56.203125 54.6875 L 35.6875 0 L 23.484375 0 z"/><path id="DejaVuSans-99" d="M 48.78125 52.59375 L 48.78125 44.1875 Q 44.96875 46.296875 41.140625 47.34375 Q 37.3125 48.390625 33.40625 48.390625 Q 24.65625 48.390625 19.8125 42.84375 Q 14.984375 37.3125 14.984375 27.296875 Q 14.984375 17.28125 19.8125 11.734375 Q 24.65625 6.203125 33.40625 6.203125 Q 37.3125 6.203125 41.140625 7.25 Q 44.96875 8.296875 48.78125 10.40625 L 48.78125 2.09375 Q 45.015625 0.34375 40.984375 -0.53125 Q 36.96875 -1.421875 32.421875 -1.421875 Q 20.0625 -1.421875 12.78125 6.34375 Q 5.515625 14.109375 5.515625 27.296875 Q 5.515625 40.671875 12.859375 48.328125 Q 20.21875 56 33.015625 56 Q 37.15625 56 41.109375 55.140625 Q 45.0625 54.296875 48.78125 52.59375 z"/></defs><g transform="translate(358.967812 43.176)scale(0.12 -0.12)"><use xlink:href="#DejaVuSans-118"/><use x="59.18" xlink:href="#DejaVuSans-101"/><use x="120.703" xlink:href="#DejaVuSans-99"/><use x="175.684" xlink:href="#DejaVuSans-116"/><use x="214.893" xlink:href="#DejaVuSans-111"/><use x="276.074" xlink:href="#DejaVuSans-114"/></g></g></g><g id="axes_3"><g id="patch_12"><path d="M 487.2 295.2 L 705.6 295.2 L 705.6 54 L 487.2 54 z" style="fill:#fff"/></g><g id="matplotlib.axis_5"><g id="xtick_113"><g id="line2d_175"><g><use style="stroke:#000;stroke-width:.8" x="510.941" y="295.2" xlink:href="#m482e982188"/></g></g><g id="text_24"><g transform="translate(502.141105 309.798437)scale(0.1 -0.1)"><use transform="translate(0 0.684375)" xlink:href="#DejaVuSans-49"/><use transform="translate(63.623047 0.684375)" xlink:href="#DejaVuSans-48"/><use transform="translate(128.203125 38.965625)scale(0.7)" xlink:href="#DejaVuSans-49"/></g></g></g><g id="xtick_114"><g id="line2d_176"><g><use style="stroke:#000;stroke-width:.8" x="545.654" y="295.2" xlink:href="#m482e982188"/></g></g><g id="text_25"><g transform="translate(536.854459 309.798437)scale(0.1 -0.1)"><use transform="translate(0 0.765625)" xlink:href="#DejaVuSans-49"/><use transform="translate(63.623047 0.765625)" xlink:href="#DejaVuSans-48"/><use transform="translate(128.203125 39.046875)scale(0.7)" xlink:href="#DejaVuSans-50"/></g></g></g><g id="xtick_115"><g id="line2d_177"><g><use style="stroke:#000;stroke-width:.8" x="580.368" y="295.2" xlink:href="#m482e982188"/></g></g><g id="text_26"><g transform="translate(571.567813 309.798437)scale(0.1 -0.1)"><use transform="translate(0 0.765625)" xlink:href="#DejaVuSans-49"/><use transform="translate(63.623047 0.765625)" xlink:href="#DejaVuSans-48"/><use transform="translate(128.203125 39.046875)scale(0.7)" xlink:href="#DejaVuSans-51"/></g></g></g><g id="xtick_116"><g id="line2d_178"><g><use style="stroke:#000;stroke-width:.8" x="615.081" y="295.2" xlink:href="#m482e982188"/></g></g><g id="text_27"><g transform="translate(606.281167 309.798437)scale(0.1 -0.1)"><use transform="translate(0 0.684375)" xlink:href="#DejaVuSans-49"/><use transform="translate(63.623047 0.684375)" xlink:href="#DejaVuSans-48"/><use transform="translate(128.203125 38.965625)scale(0.7)" xlink:href="#DejaVuSans-52"/></g></g></g><g id="xtick_117"><g id="line2d_179"><g><use style="stroke:#000;stroke-width:.8" x="649.795" y="295.2" xlink:href="#m482e982188"/></g></g><g id="text_28"><g transform="translate(640.994521 309.798437)scale(0.1 -0.1)"><use transform="translate(0 0.684375)" xlink:href="#DejaVuSans-49"/><use transform="translate(63.623047 0.684375)" xlink:href="#DejaVuSans-48"/><use transform="translate(128.203125 38.965625)scale(0.7)" xlink:href="#DejaVuSans-53"/></g></g></g><g id="xtick_118"><g id="line2d_180"><g><use style="stroke:#000;stroke-width:.8" x="684.508" y="295.2" xlink:href="#m482e982188"/></g></g><g id="text_29"><g transform="translate(675.707874 309.798437)scale(0.1 -0.1)"><use transform="translate(0 0.765625)" xlink:href="#DejaVuSans-49"/><use transform="translate(63.623047 0.765625)" xlink:href="#DejaVuSans-48"/><use transform="translate(128.203125 39.046875)scale(0.7)" xlink:href="#DejaVuSans-54"/></g></g></g><g id="xtick_119"><g id="line2d_181"><g><use style="stroke:#000;stroke-width:.6" x="492.79" y="295.2" xlink:href="#m89e414f2da"/></g></g></g><g id="xtick_120"><g id="line2d_182"><g><use style="stroke:#000;stroke-width:.6" x="497.127" y="295.2" xlink:href="#m89e414f2da"/></g></g></g><g id="xtick_121"><g id="line2d_183"><g><use style="stroke:#000;stroke-width:.6" x="500.491" y="295.2" xlink:href="#m89e414f2da"/></g></g></g><g id="xtick_122"><g id="line2d_184"><g><use style="stroke:#000;stroke-width:.6" x="503.24" y="295.2" xlink:href="#m89e414f2da"/></g></g></g><g id="xtick_123"><g id="line2d_185"><g><use style="stroke:#000;stroke-width:.6" x="505.564" y="295.2" xlink:href="#m89e414f2da"/></g></g></g><g id="xtick_124"><g id="line2d_186"><g><use style="stroke:#000;stroke-width:.6" x="507.577" y="295.2" xlink:href="#m89e414f2da"/></g></g></g><g id="xtick_125"><g id="line2d_187"><g><use style="stroke:#000;stroke-width:.6" x="509.353" y="295.2" xlink:href="#m89e414f2da"/></g></g></g><g id="xtick_126"><g id="line2d_188"><g><use style="stroke:#000;stroke-width:.6" x="521.391" y="295.2" xlink:href="#m89e414f2da"/></g></g></g><g id="xtick_127"><g id="line2d_189"><g><use style="stroke:#000;stroke-width:.6" x="527.504" y="295.2" xlink:href="#m89e414f2da"/></g></g></g><g id="xtick_128"><g id="line2d_190"><g><use style="stroke:#000;stroke-width:.6" x="531.841" y="295.2" xlink:href="#m89e414f2da"/></g></g></g><g id="xtick_129"><g id="line2d_191"><g><use style="stroke:#000;stroke-width:.6" x="535.205" y="295.2" xlink:href="#m89e414f2da"/></g></g></g><g id="xtick_130"><g id="line2d_192"><g><use style="stroke:#000;stroke-width:.6" x="537.953" y="295.2" xlink:href="#m89e414f2da"/></g></g></g><g id="xtick_131"><g id="line2d_193"><g><use style="stroke:#000;stroke-width:.6" x="540.277" y="295.2" xlink:href="#m89e414f2da"/></g></g></g><g id="xtick_132"><g id="line2d_194"><g><use style="stroke:#000;stroke-width:.6" x="542.29" y="295.2" xlink:href="#m89e414f2da"/></g></g></g><g id="xtick_133"><g id="line2d_195"><g><use style="stroke:#000;stroke-width:.6" x="544.066" y="295.2" xlink:href="#m89e414f2da"/></g></g></g><g id="xtick_134"><g id="line2d_196"><g><use style="stroke:#000;stroke-width:.6" x="556.104" y="295.2" xlink:href="#m89e414f2da"/></g></g></g><g id="xtick_135"><g id="line2d_197"><g><use style="stroke:#000;stroke-width:.6" x="562.217" y="295.2" xlink:href="#m89e414f2da"/></g></g></g><g id="xtick_136"><g id="line2d_198"><g><use style="stroke:#000;stroke-width:.6" x="566.554" y="295.2" xlink:href="#m89e414f2da"/></g></g></g><g id="xtick_137"><g id="line2d_199"><g><use style="stroke:#000;stroke-width:.6" x="569.918" y="295.2" xlink:href="#m89e414f2da"/></g></g></g><g id="xtick_138"><g id="line2d_200"><g><use style="stroke:#000;stroke-width:.6" x="572.667" y="295.2" xlink:href="#m89e414f2da"/></g></g></g><g id="xtick_139"><g id="line2d_201"><g><use style="stroke:#000;stroke-width:.6" x="574.991" y="295.2" xlink:href="#m89e414f2da"/></g></g></g><g id="xtick_140"><g id="line2d_202"><g><use style="stroke:#000;stroke-width:.6" x="577.004" y="295.2" xlink:href="#m89e414f2da"/></g></g></g><g id="xtick_141"><g id="line2d_203"><g><use style="stroke:#000;stroke-width:.6" x="578.779" y="295.2" xlink:href="#m89e414f2da"/></g></g></g><g id="xtick_142"><g id="line2d_204"><g><use style="stroke:#000;stroke-width:.6" x="590.818" y="295.2" xlink:href="#m89e414f2da"/></g></g></g><g id="xtick_143"><g id="line2d_205"><g><use style="stroke:#000;stroke-width:.6" x="596.93" y="295.2" xlink:href="#m89e414f2da"/></g></g></g><g id="xtick_144"><g id="line2d_206"><g><use style="stroke:#000;stroke-width:.6" x="601.267" y="295.2" xlink:href="#m89e414f2da"/></g></g></g><g id="xtick_145"><g id="line2d_207"><g><use style="stroke:#000;stroke-width:.6" x="604.631" y="295.2" xlink:href="#m89e414f2da"/></g></g></g><g id="xtick_146"><g id="line2d_208"><g><use style="stroke:#000;stroke-width:.6" x="607.38" y="295.2" xlink:href="#m89e414f2da"/></g></g></g><g id="xtick_147"><g id="line2d_209"><g><use style="stroke:#000;stroke-width:.6" x="609.704" y="295.2" xlink:href="#m89e414f2da"/></g></g></g><g id="xtick_148"><g id="line2d_210"><g><use style="stroke:#000;stroke-width:.6" x="611.717" y="295.2" xlink:href="#m89e414f2da"/></g></g></g><g id="xtick_149"><g id="line2d_211"><g><use style="stroke:#000;stroke-width:.6" x="613.493" y="295.2" xlink:href="#m89e414f2da"/></g></g></g><g id="xtick_150"><g id="line2d_212"><g><use style="stroke:#000;stroke-width:.6" x="625.531" y="295.2" xlink:href="#m89e414f2da"/></g></g></g><g id="xtick_151"><g id="line2d_213"><g><use style="stroke:#000;stroke-width:.6" x="631.644" y="295.2" xlink:href="#m89e414f2da"/></g></g></g><g id="xtick_152"><g id="line2d_214"><g><use style="stroke:#000;stroke-width:.6" x="635.981" y="295.2" xlink:href="#m89e414f2da"/></g></g></g><g id="xtick_153"><g id="line2d_215"><g><use style="stroke:#000;stroke-width:.6" x="639.345" y="295.2" xlink:href="#m89e414f2da"/></g></g></g><g id="xtick_154"><g id="line2d_216"><g><use style="stroke:#000;stroke-width:.6" x="642.093" y="295.2" xlink:href="#m89e414f2da"/></g></g></g><g id="xtick_155"><g id="line2d_217"><g><use style="stroke:#000;stroke-width:.6" x="644.417" y="295.2" xlink:href="#m89e414f2da"/></g></g></g><g id="xtick_156"><g id="line2d_218"><g><use style="stroke:#000;stroke-width:.6" x="646.43" y="295.2" xlink:href="#m89e414f2da"/></g></g></g><g id="xtick_157"><g id="line2d_219"><g><use style="stroke:#000;stroke-width:.6" x="648.206" y="295.2" xlink:href="#m89e414f2da"/></g></g></g><g id="xtick_158"><g id="line2d_220"><g><use style="stroke:#000;stroke-width:.6" x="660.244" y="295.2" xlink:href="#m89e414f2da"/></g></g></g><g id="xtick_159"><g id="line2d_221"><g><use style="stroke:#000;stroke-width:.6" x="666.357" y="295.2" xlink:href="#m89e414f2da"/></g></g></g><g id="xtick_160"><g id="line2d_222"><g><use style="stroke:#000;stroke-width:.6" x="670.694" y="295.2" xlink:href="#m89e414f2da"/></g></g></g><g id="xtick_161"><g id="line2d_223"><g><use style="stroke:#000;stroke-width:.6" x="674.058" y="295.2" xlink:href="#m89e414f2da"/></g></g></g><g id="xtick_162"><g id="line2d_224"><g><use style="stroke:#000;stroke-width:.6" x="676.807" y="295.2" xlink:href="#m89e414f2da"/></g></g></g><g id="xtick_163"><g id="line2d_225"><g><use style="stroke:#000;stroke-width:.6" x="679.131" y="295.2" xlink:href="#m89e414f2da"/></g></g></g><g id="xtick_164"><g id="line2d_226"><g><use style="stroke:#000;stroke-width:.6" x="681.144" y="295.2" xlink:href="#m89e414f2da"/></g></g></g><g id="xtick_165"><g id="line2d_227"><g><use style="stroke:#000;stroke-width:.6" x="682.919" y="295.2" xlink:href="#m89e414f2da"/></g></g></g><g id="xtick_166"><g id="line2d_228"><g><use style="stroke:#000;stroke-width:.6" x="694.958" y="295.2" xlink:href="#m89e414f2da"/></g></g></g><g id="xtick_167"><g id="line2d_229"><g><use style="stroke:#000;stroke-width:.6" x="701.07" y="295.2" xlink:href="#m89e414f2da"/></g></g></g><g id="xtick_168"><g id="line2d_230"><g><use style="stroke:#000;stroke-width:.6" x="705.407" y="295.2" xlink:href="#m89e414f2da"/></g></g></g></g><g id="matplotlib.axis_6"><g id="ytick_39"><g id="line2d_231"><g><use style="stroke:#000;stroke-width:.8" x="487.2" y="241.846" xlink:href="#mc95c05c8a2"/></g></g></g><g id="ytick_40"><g id="line2d_232"><g><use style="stroke:#000;stroke-width:.8" x="487.2" y="130.674" xlink:href="#mc95c05c8a2"/></g></g></g><g id="ytick_41"><g id="line2d_233"><g><use style="stroke:#000;stroke-width:.6" x="487.2" y="286.086" xlink:href="#m4f0c982327"/></g></g></g><g id="ytick_42"><g id="line2d_234"><g><use style="stroke:#000;stroke-width:.6" x="487.2" y="275.313" xlink:href="#m4f0c982327"/></g></g></g><g id="ytick_43"><g id="line2d_235"><g><use style="stroke:#000;stroke-width:.6" x="487.2" y="266.51" xlink:href="#m4f0c982327"/></g></g></g><g id="ytick_44"><g id="line2d_236"><g><use style="stroke:#000;stroke-width:.6" x="487.2" y="259.067" xlink:href="#m4f0c982327"/></g></g></g><g id="ytick_45"><g id="line2d_237"><g><use style="stroke:#000;stroke-width:.6" x="487.2" y="252.62" xlink:href="#m4f0c982327"/></g></g></g><g id="ytick_46"><g id="line2d_238"><g><use style="stroke:#000;stroke-width:.6" x="487.2" y="246.933" xlink:href="#m4f0c982327"/></g></g></g><g id="ytick_47"><g id="line2d_239"><g><use style="stroke:#000;stroke-width:.6" x="487.2" y="208.38" xlink:href="#m4f0c982327"/></g></g></g><g id="ytick_48"><g id="line2d_240"><g><use style="stroke:#000;stroke-width:.6" x="487.2" y="188.804" xlink:href="#m4f0c982327"/></g></g></g><g id="ytick_49"><g id="line2d_241"><g><use style="stroke:#000;stroke-width:.6" x="487.2" y="174.914" xlink:href="#m4f0c982327"/></g></g></g><g id="ytick_50"><g id="line2d_242"><g><use style="stroke:#000;stroke-width:.6" x="487.2" y="164.14" xlink:href="#m4f0c982327"/></g></g></g><g id="ytick_51"><g id="line2d_243"><g><use style="stroke:#000;stroke-width:.6" x="487.2" y="155.337" xlink:href="#m4f0c982327"/></g></g></g><g id="ytick_52"><g id="line2d_244"><g><use style="stroke:#000;stroke-width:.6" x="487.2" y="147.895" xlink:href="#m4f0c982327"/></g></g></g><g id="ytick_53"><g id="line2d_245"><g><use style="stroke:#000;stroke-width:.6" x="487.2" y="141.448" xlink:href="#m4f0c982327"/></g></g></g><g id="ytick_54"><g id="line2d_246"><g><use style="stroke:#000;stroke-width:.6" x="487.2" y="135.761" xlink:href="#m4f0c982327"/></g></g></g><g id="ytick_55"><g id="line2d_247"><g><use style="stroke:#000;stroke-width:.6" x="487.2" y="97.208" xlink:href="#m4f0c982327"/></g></g></g><g id="ytick_56"><g id="line2d_248"><g><use style="stroke:#000;stroke-width:.6" x="487.2" y="77.631" xlink:href="#m4f0c982327"/></g></g></g><g id="ytick_57"><g id="line2d_249"><g><use style="stroke:#000;stroke-width:.6" x="487.2" y="63.741" xlink:href="#m4f0c982327"/></g></g></g></g><g id="line2d_250"><path d="M 497.127273 118.192506 L 507.577033 115.298357 L 518.026794 116.633419 L 528.476555 118.943987 L 538.926316 120.202797 L 549.376077 120.020945" clip-path="url(#p23b527d8b3)" style="fill:none;stroke:red;stroke-dasharray:3.7,1.6;stroke-dashoffset:0"/></g><g id="line2d_251"><path d="M 497.127273 171.422095 L 507.577033 193.224636 L 518.026794 205.169911 L 528.476555 195.828967 L 538.926316 199.766329 L 549.376077 203.029845" clip-path="url(#p23b527d8b3)" style="fill:none;stroke:#00f;stroke-dasharray:1,1.65;stroke-dashoffset:0"/></g><g id="line2d_252"><path d="M 518.026794 80.426232 L 538.926316 82.578493 L 559.825837 83.25181 L 580.725359 85.021304 L 601.62488 85.623992 L 622.524402 85.374263" clip-path="url(#p23b527d8b3)" style="fill:none;stroke:red;stroke-dasharray:7.4,3.2;stroke-dashoffset:0;stroke-width:2"/></g><g id="line2d_253"><path d="M 518.026794 188.803621 L 538.926316 201.370518 L 559.825837 215.80708 L 580.725359 195.394647 L 601.62488 197.98984 L 622.524402 199.456689" clip-path="url(#p23b527d8b3)" style="fill:none;stroke:#00f;stroke-dasharray:2,3.3;stroke-dashoffset:0;stroke-width:2"/></g><g id="line2d_254"><path d="M 538.926316 64.963636 L 570.275598 68.408331 L 601.62488 69.872487 L 632.974163 70.494548 L 664.323445 70.45165 L 695.672727 70.831128" clip-path="url(#p23b527d8b3)" style="fill:none;stroke:red;stroke-dasharray:11.1,4.8;stroke-dashoffset:0;stroke-width:3"/></g><g id="line2d_255"><path d="M 538.926316 204.053522 L 570.275598 216.583151 L 601.62488 221.575535 L 632.974163 200.878594 L 664.323445 204.873704 L 695.672727 205.617298" clip-path="url(#p23b527d8b3)" style="fill:none;stroke:#00f;stroke-dasharray:3,4.95;stroke-dashoffset:0;stroke-width:3"/></g><g id="patch_13"><path d="M 487.2 295.2 L 487.2 54" style="fill:none;stroke:#000;stroke-linecap:square;stroke-linejoin:miter;stroke-width:.8"/></g><g id="patch_14"><path d="M 705.6 295.2 L 705.6 54" style="fill:none;stroke:#000;stroke-linecap:square;stroke-linejoin:miter;stroke-width:.8"/></g><g id="patch_15"><path d="M 487.2 295.2 L 705.6 295.2" style="fill:none;stroke:#000;stroke-linecap:square;stroke-linejoin:miter;stroke-width:.8"/></g><g id="patch_16"><path d="M 487.2 54 L 705.6 54" style="fill:none;stroke:#000;stroke-linecap:square;stroke-linejoin:miter;stroke-width:.8"/></g><g id="text_30"><defs><path id="DejaVuSans-97" d="M 34.28125 27.484375 Q 23.390625 27.484375 19.1875 25 Q 14.984375 22.515625 14.984375 16.5 Q 14.984375 11.71875 18.140625 8.90625 Q 21.296875 6.109375 26.703125 6.109375 Q 34.1875 6.109375 38.703125 11.40625 Q 43.21875 16.703125 43.21875 25.484375 L 43.21875 27.484375 z M 52.203125 31.203125 L 52.203125 0 L 43.21875 0 L 43.21875 8.296875 Q 40.140625 3.328125 35.546875 0.953125 Q 30.953125 -1.421875 24.3125 -1.421875 Q 15.921875 -1.421875 10.953125 3.296875 Q 6 8.015625 6 15.921875 Q 6 25.140625 12.171875 29.828125 Q 18.359375 34.515625 30.609375 34.515625 L 43.21875 34.515625 L 43.21875 35.40625 Q 43.21875 41.609375 39.140625 45 Q 35.0625 48.390625 27.6875 48.390625 Q 23 48.390625 18.546875 47.265625 Q 14.109375 46.140625 10.015625 43.890625 L 10.015625 52.203125 Q 14.9375 54.109375 19.578125 55.046875 Q 24.21875 56 28.609375 56 Q 40.484375 56 46.34375 49.84375 Q 52.203125 43.703125 52.203125 31.203125 z"/></defs><g transform="translate(546.5775 43.176)scale(0.12 -0.12)"><use xlink:href="#DejaVuSans-118"/><use x="59.18" xlink:href="#DejaVuSans-101"/><use x="120.703" xlink:href="#DejaVuSans-99"/><use x="175.684" xlink:href="#DejaVuSans-116"/><use x="214.893" xlink:href="#DejaVuSans-111"/><use x="276.074" xlink:href="#DejaVuSans-114"/><use x="317.188" xlink:href="#DejaVuSans-32"/><use x="348.975" xlink:href="#DejaVuSans-111"/><use x="410.156" xlink:href="#DejaVuSans-102"/><use x="445.361" xlink:href="#DejaVuSans-32"/><use x="477.148" xlink:href="#DejaVuSans-118"/><use x="536.328" xlink:href="#DejaVuSans-97"/><use x="597.607" xlink:href="#DejaVuSans-114"/><use x="638.721" xlink:href="#DejaVuSans-105"/><use x="666.504" xlink:href="#DejaVuSans-97"/><use x="727.783" xlink:href="#DejaVuSans-110"/><use x="791.162" xlink:href="#DejaVuSans-116"/></g></g></g><g id="text_31"><defs><path id="DejaVuSans-73" d="M 9.8125 72.90625 L 19.671875 72.90625 L 19.671875 0 L 9.8125 0 z"/><path id="DejaVuSans-40" d="M 31 75.875 Q 24.46875 64.65625 21.28125 53.65625 Q 18.109375 42.671875 18.109375 31.390625 Q 18.109375 20.125 21.3125 9.0625 Q 24.515625 -2 31 -13.1875 L 23.1875 -13.1875 Q 15.875 -1.703125 12.234375 9.375 Q 8.59375 20.453125 8.59375 31.390625 Q 8.59375 42.28125 12.203125 53.3125 Q 15.828125 64.359375 23.1875 75.875 z"/><path id="DejaVuSans-82" d="M 44.390625 34.1875 Q 47.5625 33.109375 50.5625 29.59375 Q 53.5625 26.078125 56.59375 19.921875 L 66.609375 0 L 56 0 L 46.6875 18.703125 Q 43.0625 26.03125 39.671875 28.421875 Q 36.28125 30.8125 30.421875 30.8125 L 19.671875 30.8125 L 19.671875 0 L 9.8125 0 L 9.8125 72.90625 L 32.078125 72.90625 Q 44.578125 72.90625 50.734375 67.671875 Q 56.890625 62.453125 56.890625 51.90625 Q 56.890625 45.015625 53.6875 40.46875 Q 50.484375 35.9375 44.390625 34.1875 z M 19.671875 64.796875 L 19.671875 38.921875 L 32.078125 38.921875 Q 39.203125 38.921875 42.84375 42.21875 Q 46.484375 45.515625 46.484375 51.90625 Q 46.484375 58.296875 42.84375 61.546875 Q 39.203125 64.796875 32.078125 64.796875 z"/><path id="DejaVuSans-41" d="M 8.015625 75.875 L 15.828125 75.875 Q 23.140625 64.359375 26.78125 53.3125 Q 30.421875 42.28125 30.421875 31.390625 Q 30.421875 20.453125 26.78125 9.375 Q 23.140625 -1.703125 15.828125 -13.1875 L 8.015625 -13.1875 Q 14.5 -2 17.703125 9.0625 Q 20.90625 20.125 20.90625 31.390625 Q 20.90625 42.671875 17.703125 53.65625 Q 14.5 64.65625 8.015625 75.875 z"/><path id="DejaVuSans-84" d="M -0.296875 72.90625 L 61.375 72.90625 L 61.375 64.59375 L 35.5 64.59375 L 35.5 0 L 25.59375 0 L 25.59375 64.59375 L -0.296875 64.59375 z"/><path id="DejaVuSans-77" d="M 9.8125 72.90625 L 24.515625 72.90625 L 43.109375 23.296875 L 61.8125 72.90625 L 76.515625 72.90625 L 76.515625 0 L 66.890625 0 L 66.890625 64.015625 L 48.09375 14.015625 L 38.1875 14.015625 L 19.390625 64.015625 L 19.390625 0 L 9.8125 0 z"/><path id="DejaVuSans-55" d="M 8.203125 72.90625 L 55.078125 72.90625 L 55.078125 68.703125 L 28.609375 0 L 18.3125 0 L 43.21875 64.59375 L 8.203125 64.59375 z"/><path id="DejaVuSans-45" d="M 4.890625 31.390625 L 31.203125 31.390625 L 31.203125 23.390625 L 4.890625 23.390625 z"/><path id="DejaVuSans-64" d="M 37.203125 26.21875 Q 37.203125 19.234375 40.671875 15.25 Q 44.140625 11.28125 50.203125 11.28125 Q 56.203125 11.28125 59.640625 15.28125 Q 63.09375 19.28125 63.09375 26.21875 Q 63.09375 33.0625 59.578125 37.078125 Q 56.0625 41.109375 50.09375 41.109375 Q 44.1875 41.109375 40.6875 37.109375 Q 37.203125 33.109375 37.203125 26.21875 z M 63.8125 11.625 Q 60.890625 7.859375 57.109375 6.078125 Q 53.328125 4.296875 48.296875 4.296875 Q 39.890625 4.296875 34.640625 10.375 Q 29.390625 16.453125 29.390625 26.21875 Q 29.390625 35.984375 34.65625 42.078125 Q 39.9375 48.1875 48.296875 48.1875 Q 53.328125 48.1875 57.125 46.359375 Q 60.9375 44.53125 63.8125 40.828125 L 63.8125 47.21875 L 70.796875 47.21875 L 70.796875 11.28125 Q 77.9375 12.359375 81.953125 17.796875 Q 85.984375 23.25 85.984375 31.890625 Q 85.984375 37.109375 84.4375 41.703125 Q 82.90625 46.296875 79.78125 50.203125 Q 74.703125 56.59375 67.40625 59.984375 Q 60.109375 63.375 51.515625 63.375 Q 45.515625 63.375 39.984375 61.78125 Q 34.46875 60.203125 29.78125 57.078125 Q 22.125 52.09375 17.796875 44.015625 Q 13.484375 35.9375 13.484375 26.515625 Q 13.484375 18.75 16.28125 11.953125 Q 19.09375 5.171875 24.421875 0 Q 29.546875 -5.078125 36.28125 -7.734375 Q 43.015625 -10.40625 50.6875 -10.40625 Q 56.984375 -10.40625 63.0625 -8.28125 Q 69.140625 -6.15625 74.21875 -2.203125 L 78.609375 -7.625 Q 72.515625 -12.359375 65.3125 -14.875 Q 58.109375 -17.390625 50.6875 -17.390625 Q 41.65625 -17.390625 33.640625 -14.1875 Q 25.640625 -10.984375 19.390625 -4.890625 Q 13.140625 1.21875 9.859375 9.25 Q 6.59375 17.28125 6.59375 26.515625 Q 6.59375 35.40625 9.90625 43.453125 Q 13.234375 51.515625 19.390625 57.625 Q 25.6875 63.8125 33.9375 67.109375 Q 42.1875 70.40625 51.421875 70.40625 Q 61.765625 70.40625 70.625 66.15625 Q 79.5 61.921875 85.5 54.109375 Q 89.15625 49.3125 91.078125 43.703125 Q 93.015625 38.09375 93.015625 32.078125 Q 93.015625 19.234375 85.25 11.8125 Q 77.484375 4.390625 63.8125 4.109375 z"/><path id="DejaVuSans-46" d="M 10.6875 12.40625 L 21 12.40625 L 21 0 L 10.6875 0 z"/><path id="DejaVuSans-56" d="M 31.78125 34.625 Q 24.75 34.625 20.71875 30.859375 Q 16.703125 27.09375 16.703125 20.515625 Q 16.703125 13.921875 20.71875 10.15625 Q 24.75 6.390625 31.78125 6.390625 Q 38.8125 6.390625 42.859375 10.171875 Q 46.921875 13.96875 46.921875 20.515625 Q 46.921875 27.09375 42.890625 30.859375 Q 38.875 34.625 31.78125 34.625 z M 21.921875 38.8125 Q 15.578125 40.375 12.03125 44.71875 Q 8.5 49.078125 8.5 55.328125 Q 8.5 64.0625 14.71875 69.140625 Q 20.953125 74.21875 31.78125 74.21875 Q 42.671875 74.21875 48.875 69.140625 Q 55.078125 64.0625 55.078125 55.328125 Q 55.078125 49.078125 51.53125 44.71875 Q 48 40.375 41.703125 38.8125 Q 48.828125 37.15625 52.796875 32.3125 Q 56.78125 27.484375 56.78125 20.515625 Q 56.78125 9.90625 50.3125 4.234375 Q 43.84375 -1.421875 31.78125 -1.421875 Q 19.734375 -1.421875 13.25 4.234375 Q 6.78125 9.90625 6.78125 20.515625 Q 6.78125 27.484375 10.78125 32.3125 Q 14.796875 37.15625 21.921875 38.8125 z M 18.3125 54.390625 Q 18.3125 48.734375 21.84375 45.5625 Q 25.390625 42.390625 31.78125 42.390625 Q 38.140625 42.390625 41.71875 45.5625 Q 45.3125 48.734375 45.3125 54.390625 Q 45.3125 60.0625 41.71875 63.234375 Q 38.140625 66.40625 31.78125 66.40625 Q 25.390625 66.40625 21.84375 63.234375 Q 18.3125 60.0625 18.3125 54.390625 z"/><path id="DejaVuSans-71" d="M 59.515625 10.40625 L 59.515625 29.984375 L 43.40625 29.984375 L 43.40625 38.09375 L 69.28125 38.09375 L 69.28125 6.78125 Q 63.578125 2.734375 56.6875 0.65625 Q 49.8125 -1.421875 42 -1.421875 Q 24.90625 -1.421875 15.25 8.5625 Q 5.609375 18.5625 5.609375 36.375 Q 5.609375 54.25 15.25 64.234375 Q 24.90625 74.21875 42 74.21875 Q 49.125 74.21875 55.546875 72.453125 Q 61.96875 70.703125 67.390625 67.28125 L 67.390625 56.78125 Q 61.921875 61.421875 55.765625 63.765625 Q 49.609375 66.109375 42.828125 66.109375 Q 29.4375 66.109375 22.71875 58.640625 Q 16.015625 51.171875 16.015625 36.375 Q 16.015625 21.625 22.71875 14.15625 Q 29.4375 6.6875 42.828125 6.6875 Q 48.046875 6.6875 52.140625 7.59375 Q 56.25 8.5 59.515625 10.40625 z"/><path id="DejaVuSans-72" d="M 9.8125 72.90625 L 19.671875 72.90625 L 19.671875 43.015625 L 55.515625 43.015625 L 55.515625 72.90625 L 65.375 72.90625 L 65.375 0 L 55.515625 0 L 55.515625 34.71875 L 19.671875 34.71875 L 19.671875 0 L 9.8125 0 z"/><path id="DejaVuSans-122" d="M 5.515625 54.6875 L 48.1875 54.6875 L 48.1875 46.484375 L 14.40625 7.171875 L 48.1875 7.171875 L 48.1875 0 L 4.296875 0 L 4.296875 8.203125 L 38.09375 47.515625 L 5.515625 47.515625 z"/></defs><g transform="translate(229.611562 16.318125)scale(0.12 -0.12)"><use xlink:href="#DejaVuSans-73"/><use x="29.492" xlink:href="#DejaVuSans-110"/><use x="92.871" xlink:href="#DejaVuSans-116"/><use x="132.08" xlink:href="#DejaVuSans-101"/><use x="193.604" xlink:href="#DejaVuSans-108"/><use x="221.387" xlink:href="#DejaVuSans-40"/><use x="260.4" xlink:href="#DejaVuSans-82"/><use x="329.883" xlink:href="#DejaVuSans-41"/><use x="368.896" xlink:href="#DejaVuSans-32"/><use x="400.684" xlink:href="#DejaVuSans-67"/><use x="470.508" xlink:href="#DejaVuSans-111"/><use x="531.689" xlink:href="#DejaVuSans-114"/><use x="572.771" xlink:href="#DejaVuSans-101"/><use x="634.295" xlink:href="#DejaVuSans-40"/><use x="673.309" xlink:href="#DejaVuSans-84"/><use x="734.393" xlink:href="#DejaVuSans-77"/><use x="820.672" xlink:href="#DejaVuSans-41"/><use x="859.686" xlink:href="#DejaVuSans-32"/><use x="891.473" xlink:href="#DejaVuSans-105"/><use x="919.256" xlink:href="#DejaVuSans-55"/><use x="982.879" xlink:href="#DejaVuSans-45"/><use x="1018.963" xlink:href="#DejaVuSans-52"/><use x="1082.586" xlink:href="#DejaVuSans-53"/><use x="1146.209" xlink:href="#DejaVuSans-48"/><use x="1209.832" xlink:href="#DejaVuSans-48"/><use x="1273.455" xlink:href="#DejaVuSans-85"/><use x="1346.648" xlink:href="#DejaVuSans-32"/><use x="1378.436" xlink:href="#DejaVuSans-67"/><use x="1448.26" xlink:href="#DejaVuSans-80"/><use x="1508.563" xlink:href="#DejaVuSans-85"/><use x="1581.756" xlink:href="#DejaVuSans-32"/><use x="1613.543" xlink:href="#DejaVuSans-64"/><use x="1713.543" xlink:href="#DejaVuSans-32"/><use x="1745.33" xlink:href="#DejaVuSans-49"/><use x="1808.953" xlink:href="#DejaVuSans-46"/><use x="1840.74" xlink:href="#DejaVuSans-56"/><use x="1904.363" xlink:href="#DejaVuSans-48"/><use x="1967.986" xlink:href="#DejaVuSans-71"/><use x="2045.477" xlink:href="#DejaVuSans-72"/><use x="2120.672" xlink:href="#DejaVuSans-122"/></g></g><g id="text_32"><g transform="translate(322.151563 342)scale(0.1 -0.1)"><use xlink:href="#DejaVuSans-110"/><use x="63.379" xlink:href="#DejaVuSans-117"/><use x="126.758" xlink:href="#DejaVuSans-109"/><use x="224.17" xlink:href="#DejaVuSans-98"/><use x="287.646" xlink:href="#DejaVuSans-101"/><use x="349.17" xlink:href="#DejaVuSans-114"/><use x="390.283" xlink:href="#DejaVuSans-32"/><use x="422.07" xlink:href="#DejaVuSans-111"/><use x="483.252" xlink:href="#DejaVuSans-102"/><use x="518.457" xlink:href="#DejaVuSans-32"/><use x="550.244" xlink:href="#DejaVuSans-98"/><use x="613.721" xlink:href="#DejaVuSans-105"/><use x="641.504" xlink:href="#DejaVuSans-110"/><use x="704.883" xlink:href="#DejaVuSans-115"/></g></g></g><defs><clipPath id="p2b0e5ff15b"><rect width="218.4" height="241.2" x="50.4" y="54"/></clipPath><clipPath id="p3bfde87aef"><rect width="218.4" height="241.2" x="268.8" y="54"/></clipPath><clipPath id="p23b527d8b3"><rect width="218.4" height="241.2" x="487.2" y="54"/></clipPath></defs></svg>