<svg xmlns="http://www.w3.org/2000/svg" xmlns:cc="http://web.resource.org/cc/" xmlns:svg="http://www.w3.org/2000/svg" id="svg2" width="354.331" height="354.331" version="1.0"><metadata id="metadata7"/><g id="layer1" transform="translate(-38.639912,-633.95635)"><path style="opacity:.56687897;fill:none;fill-rule:evenodd;stroke:#007eff;stroke-width:1px;stroke-linecap:butt;stroke-linejoin:miter;stroke-opacity:1" id="path2238" d="M 78.67733,949.10975 L 149.24344,878.54364 L 212.69291,949.32749 L 149.4331,920.52717"/><path style="opacity:.6;fill:none;fill-rule:evenodd;stroke:red;stroke-width:1px;stroke-linecap:butt;stroke-linejoin:miter;stroke-opacity:1" id="linestring" d="M 77.875125,949.43639 L 127.09591,913.61656 L 148.44123,878.87028 L 211.8907,949.65413 L 148.63089,920.85381"/><path style="opacity:.39490446;fill:#0092ff;fill-opacity:1;stroke:#000;stroke-opacity:1" id="path2232" d="M 73.776163 699.51318 A 1.7753623 1.9726247 0 1 1 70.225439,699.51318 A 1.7753623 1.9726247 0 1 1 73.776163 699.51318 z" transform="translate(34.177691,246.24958)"/><rect style="opacity:.35031846;fill:#0092ff;fill-opacity:1;fill-rule:evenodd;stroke:#000;stroke-width:.46545494px;stroke-linecap:butt;stroke-linejoin:miter;stroke-opacity:1" id="rect2234" width="106.777" height="35.17" x="108.557" y="899.844" transform="matrix(1,0,-1.8627311e-2,0.9998265,0,0)"/><path style="fill:none;fill-rule:evenodd;stroke:#000;stroke-width:1px;stroke-linecap:butt;stroke-linejoin:miter;stroke-opacity:1" id="path2163" d="M 101.06522,934.70903 L 127.68592,914.51401 L 137.78343,898.90878"/><path style="fill:none;fill-rule:evenodd;stroke:#000;stroke-width:1px;stroke-linecap:butt;stroke-linejoin:miter;stroke-opacity:1" id="path2165" d="M 169.45723,899.69565 L 196.99589,931.3651"/><path style="fill:none;fill-rule:evenodd;stroke:#000;stroke-width:1px;stroke-linecap:butt;stroke-linejoin:miter;stroke-opacity:1" id="path2167" d="M 184.02651,935.03692 L 149.60319,919.43169"/></g></svg>