<svg xmlns="http://www.w3.org/2000/svg" xmlns:svg="http://www.w3.org/2000/svg" id="svg2" width="354.331" height="354.331" version="1.0"><metadata id="metadata7"/><g id="layer1" transform="translate(-38.639912,-633.95635)"><path style="opacity:.56687897;fill:#fff900;fill-opacity:1;stroke:#121518;stroke-opacity:1;stroke-width:.9992126;stroke-miterlimit:4;stroke-dasharray:none;stroke-linejoin:round" id="path2161" d="M 184,882 L 159,918 L 170,932 L 159,946 L 137.84854,924.45625 L 123.69708,928.09125 L 109.97083,942.15146 L 142,964 L 212,960 L 229,946 L 227,896 L 184,882 z M 194,910 L 209,921 L 187,939 L 180,917 L 194,910 z"/><path style="opacity:.5;fill:#ff000b;fill-opacity:1;stroke:#000;stroke-opacity:1" id="path2232" d="M 73.776163 699.51318 A 1.7753623 1.9726247 0 1 1 70.225439,699.51318 A 1.7753623 1.9726247 0 1 1 73.776163 699.51318 z" transform="translate(97.937256,218.05672)"/><path style="opacity:.5;fill:#ff000b;fill-opacity:1;stroke:#000;stroke-opacity:1" id="path4110" d="M 73.776163 699.51318 A 1.7753623 1.9726247 0 1 1 70.225439,699.51318 A 1.7753623 1.9726247 0 1 1 73.776163 699.51318 z" transform="translate(73.05507,217.92244)"/><path style="opacity:.5;fill:#ff000b;fill-opacity:1;stroke:#000;stroke-opacity:1" id="path4112" d="M 73.776163 699.51318 A 1.7753623 1.9726247 0 1 1 70.225439,699.51318 A 1.7753623 1.9726247 0 1 1 73.776163 699.51318 z" transform="translate(122.20614,217.62168)"/></g></svg>