<svg xmlns="http://www.w3.org/2000/svg" xmlns:xlink="http://www.w3.org/1999/xlink" width="142" height="355" contentScriptType="application/ecmascript" contentStyleType="text/css" style="width:142px;height:355px" preserveAspectRatio="none" version="1.1" viewBox="0 0 142 355" zoomAndPan="magnify"><defs><filter id="f7wjnsf" width="300%" height="300%" x="-1" y="-1"><feGaussianBlur result="blurOut" stdDeviation="2"/><feColorMatrix in="blurOut" result="blurOut2" type="matrix" values="0 0 0 0 0 0 0 0 0 0 0 0 0 0 0 0 0 0 .4 0"/><feOffset dx="4" dy="4" in="blurOut2" result="blurOut3"/><feBlend in="SourceGraphic" in2="blurOut3" mode="normal"/></filter></defs><g><rect style="stroke:#4a6484;stroke-width:1" width="10" height="259.531" x="34" y="48.297" fill="#FFF" filter="url(#f7wjnsf)"/><rect style="stroke:#4a6484;stroke-width:1" width="10" height="28" x="39" y="77.297" fill="#FFF" filter="url(#f7wjnsf)"/><rect style="stroke:#4a6484;stroke-width:1" width="10" height="28" x="39" y="191.563" fill="#FFF" filter="url(#f7wjnsf)"/><rect style="stroke:#4a6484;stroke-width:1" width="10" height="28" x="39" y="263.695" fill="#FFF" filter="url(#f7wjnsf)"/><line style="stroke:#4a6484;stroke-width:1;stroke-dasharray:5,5" x1="39" x2="39" y1="38.297" y2="316.828"/><rect style="stroke:#000;stroke-width:1.5" width="58" height="30.297" x="8" y="3" fill="#91C6FF" filter="url(#f7wjnsf)"/><text x="15" y="22.995" fill="#000" font-family="sans-serif" font-size="14" lengthAdjust="spacingAndGlyphs" textLength="44">Father</text><rect style="stroke:#000;stroke-width:1.5" width="58" height="30.297" x="8" y="315.828" fill="#91C6FF" filter="url(#f7wjnsf)"/><text x="15" y="335.823" fill="#000" font-family="sans-serif" font-size="14" lengthAdjust="spacingAndGlyphs" textLength="44">Father</text><rect style="stroke:#4a6484;stroke-width:1" width="10" height="259.531" x="34" y="48.297" fill="#FFF" filter="url(#f7wjnsf)"/><rect style="stroke:#4a6484;stroke-width:1" width="10" height="28" x="39" y="77.297" fill="#FFF" filter="url(#f7wjnsf)"/><rect style="stroke:#4a6484;stroke-width:1" width="10" height="28" x="39" y="191.563" fill="#FFF" filter="url(#f7wjnsf)"/><rect style="stroke:#4a6484;stroke-width:1" width="10" height="28" x="39" y="263.695" fill="#FFF" filter="url(#f7wjnsf)"/><line style="stroke:#4a6484;stroke-width:1" x1="49" x2="91" y1="69.43" y2="69.43"/><line style="stroke:#4a6484;stroke-width:1" x1="91" x2="91" y1="69.43" y2="82.43"/><line style="stroke:#4a6484;stroke-width:1" x1="50" x2="91" y1="82.43" y2="82.43"/><polygon fill="#4A6484" points="60 78.43 50 82.43 60 86.43 56 82.43" style="stroke:#4a6484;stroke-width:1"/><text x="56" y="64.364" fill="#000" font-family="sans-serif" font-size="13" lengthAdjust="spacingAndGlyphs" textLength="59">on_setup</text><line style="stroke:#4a6484;stroke-width:1" x1="44" x2="86" y1="141.563" y2="141.563"/><line style="stroke:#4a6484;stroke-width:1" x1="86" x2="86" y1="141.563" y2="154.563"/><line style="stroke:#4a6484;stroke-width:1" x1="45" x2="86" y1="154.563" y2="154.563"/><polygon fill="#4A6484" points="55 150.563 45 154.563 55 158.563 51 154.563" style="stroke:#4a6484;stroke-width:1"/><text x="51" y="136.497" fill="#000" font-family="sans-serif" font-size="13" lengthAdjust="spacingAndGlyphs" textLength="24">fork</text><line style="stroke:#4a6484;stroke-width:1" x1="49" x2="91" y1="183.695" y2="183.695"/><line style="stroke:#4a6484;stroke-width:1" x1="91" x2="91" y1="183.695" y2="196.695"/><line style="stroke:#4a6484;stroke-width:1" x1="50" x2="91" y1="196.695" y2="196.695"/><polygon fill="#4A6484" points="60 192.695 50 196.695 60 200.695 56 196.695" style="stroke:#4a6484;stroke-width:1"/><text x="56" y="178.629" fill="#000" font-family="sans-serif" font-size="13" lengthAdjust="spacingAndGlyphs" textLength="85">on_fork_error</text><line style="stroke:#4a6484;stroke-width:1" x1="49" x2="91" y1="255.828" y2="255.828"/><line style="stroke:#4a6484;stroke-width:1" x1="91" x2="91" y1="255.828" y2="268.828"/><line style="stroke:#4a6484;stroke-width:1" x1="50" x2="91" y1="268.828" y2="268.828"/><polygon fill="#4A6484" points="60 264.828 50 268.828 60 272.828 56 268.828" style="stroke:#4a6484;stroke-width:1"/><text x="56" y="250.762" fill="#000" font-family="sans-serif" font-size="13" lengthAdjust="spacingAndGlyphs" textLength="54">on_error</text></g></svg>