<svg xmlns="http://www.w3.org/2000/svg" xmlns:xlink="http://www.w3.org/1999/xlink" width="258" height="527" contentScriptType="application/ecmascript" contentStyleType="text/css" style="width:258px;height:527px" preserveAspectRatio="none" version="1.1" viewBox="0 0 258 527" zoomAndPan="magnify"><defs><filter id="fg308co" width="300%" height="300%" x="-1" y="-1"><feGaussianBlur result="blurOut" stdDeviation="2"/><feColorMatrix in="blurOut" result="blurOut2" type="matrix" values="0 0 0 0 0 0 0 0 0 0 0 0 0 0 0 0 0 0 .4 0"/><feOffset dx="4" dy="4" in="blurOut2" result="blurOut3"/><feBlend in="SourceGraphic" in2="blurOut3" mode="normal"/></filter></defs><g><rect style="stroke:#4a6484;stroke-width:1" width="10" height="128.266" x="34" y="48.297" fill="#FFF" filter="url(#fg308co)"/><rect style="stroke:#4a6484;stroke-width:1" width="10" height="28" x="39" y="77.297" fill="#FFF" filter="url(#fg308co)"/><rect style="stroke:#4a6484;stroke-width:1" width="10" height="81.266" x="34" y="399.094" fill="#FFF" filter="url(#fg308co)"/><rect style="stroke:#4a6484;stroke-width:1" width="10" height="28" x="39" y="436.227" fill="#FFF" filter="url(#fg308co)"/><rect style="stroke:#4a6484;stroke-width:1" width="10" height="257.664" x="139" y="141.43" fill="#FFF" filter="url(#fg308co)"/><rect style="stroke:#4a6484;stroke-width:1" width="10" height="28" x="144" y="220.695" fill="#FFF" filter="url(#fg308co)"/><rect style="stroke:#4a6484;stroke-width:1" width="10" height="28" x="144" y="334.961" fill="#FFF" filter="url(#fg308co)"/><line style="stroke:#4a6484;stroke-width:1;stroke-dasharray:5,5" x1="39" x2="39" y1="38.297" y2="489.359"/><line style="stroke:#4a6484;stroke-width:1;stroke-dasharray:5,5" x1="144" x2="144" y1="38.297" y2="489.359"/><rect style="stroke:#000;stroke-width:1.5" width="58" height="30.297" x="8" y="3" fill="#91C6FF" filter="url(#fg308co)"/><text x="15" y="22.995" fill="#000" font-family="sans-serif" font-size="14" lengthAdjust="spacingAndGlyphs" textLength="44">Father</text><rect style="stroke:#000;stroke-width:1.5" width="58" height="30.297" x="8" y="488.359" fill="#91C6FF" filter="url(#fg308co)"/><text x="15" y="508.354" fill="#000" font-family="sans-serif" font-size="14" lengthAdjust="spacingAndGlyphs" textLength="44">Father</text><rect style="stroke:#000;stroke-width:1.5" width="48" height="30.297" x="118" y="3" fill="#91C6FF" filter="url(#fg308co)"/><text x="125" y="22.995" fill="#000" font-family="sans-serif" font-size="14" lengthAdjust="spacingAndGlyphs" textLength="34">Child</text><rect style="stroke:#000;stroke-width:1.5" width="48" height="30.297" x="118" y="488.359" fill="#91C6FF" filter="url(#fg308co)"/><text x="125" y="508.354" fill="#000" font-family="sans-serif" font-size="14" lengthAdjust="spacingAndGlyphs" textLength="34">Child</text><rect style="stroke:#4a6484;stroke-width:1" width="10" height="128.266" x="34" y="48.297" fill="#FFF" filter="url(#fg308co)"/><rect style="stroke:#4a6484;stroke-width:1" width="10" height="28" x="39" y="77.297" fill="#FFF" filter="url(#fg308co)"/><rect style="stroke:#4a6484;stroke-width:1" width="10" height="81.266" x="34" y="399.094" fill="#FFF" filter="url(#fg308co)"/><rect style="stroke:#4a6484;stroke-width:1" width="10" height="28" x="39" y="436.227" fill="#FFF" filter="url(#fg308co)"/><rect style="stroke:#4a6484;stroke-width:1" width="10" height="257.664" x="139" y="141.43" fill="#FFF" filter="url(#fg308co)"/><rect style="stroke:#4a6484;stroke-width:1" width="10" height="28" x="144" y="220.695" fill="#FFF" filter="url(#fg308co)"/><rect style="stroke:#4a6484;stroke-width:1" width="10" height="28" x="144" y="334.961" fill="#FFF" filter="url(#fg308co)"/><line style="stroke:#4a6484;stroke-width:1" x1="49" x2="91" y1="69.43" y2="69.43"/><line style="stroke:#4a6484;stroke-width:1" x1="91" x2="91" y1="69.43" y2="82.43"/><line style="stroke:#4a6484;stroke-width:1" x1="50" x2="91" y1="82.43" y2="82.43"/><polygon fill="#4A6484" points="60 78.43 50 82.43 60 86.43 56 82.43" style="stroke:#4a6484;stroke-width:1"/><text x="56" y="64.364" fill="#000" font-family="sans-serif" font-size="13" lengthAdjust="spacingAndGlyphs" textLength="59">on_setup</text><polygon fill="#4A6484" points="127 137.43 137 141.43 127 145.43 131 141.43" style="stroke:#4a6484;stroke-width:1"/><line style="stroke:#4a6484;stroke-width:1" x1="44" x2="133" y1="141.43" y2="141.43"/><text x="51" y="136.497" fill="#000" font-family="sans-serif" font-size="13" lengthAdjust="spacingAndGlyphs" textLength="24">fork</text><line style="stroke:#4a6484;stroke-width:1" x1="44" x2="86" y1="175.695" y2="175.695"/><line style="stroke:#4a6484;stroke-width:1" x1="86" x2="86" y1="175.695" y2="188.695"/><line style="stroke:#4a6484;stroke-width:1" x1="39" x2="86" y1="188.695" y2="188.695"/><polygon fill="#4A6484" points="49 184.695 39 188.695 49 192.695 45 188.695" style="stroke:#4a6484;stroke-width:1"/><text x="51" y="170.629" fill="#000" font-family="sans-serif" font-size="13" lengthAdjust="spacingAndGlyphs" textLength="81">wait for error</text><line style="stroke:#4a6484;stroke-width:1" x1="154" x2="196" y1="212.828" y2="212.828"/><line style="stroke:#4a6484;stroke-width:1" x1="196" x2="196" y1="212.828" y2="225.828"/><line style="stroke:#4a6484;stroke-width:1" x1="155" x2="196" y1="225.828" y2="225.828"/><polygon fill="#4A6484" points="165 221.828 155 225.828 165 229.828 161 225.828" style="stroke:#4a6484;stroke-width:1"/><text x="161" y="207.762" fill="#000" font-family="sans-serif" font-size="13" lengthAdjust="spacingAndGlyphs" textLength="96">on_exec_setup</text><line style="stroke:#4a6484;stroke-width:1" x1="149" x2="191" y1="284.961" y2="284.961"/><line style="stroke:#4a6484;stroke-width:1" x1="191" x2="191" y1="284.961" y2="297.961"/><line style="stroke:#4a6484;stroke-width:1" x1="150" x2="191" y1="297.961" y2="297.961"/><polygon fill="#4A6484" points="160 293.961 150 297.961 160 301.961 156 297.961" style="stroke:#4a6484;stroke-width:1"/><text x="156" y="279.895" fill="#000" font-family="sans-serif" font-size="13" lengthAdjust="spacingAndGlyphs" textLength="45">execve</text><line style="stroke:#4a6484;stroke-width:1" x1="154" x2="196" y1="327.094" y2="327.094"/><line style="stroke:#4a6484;stroke-width:1" x1="196" x2="196" y1="327.094" y2="340.094"/><line style="stroke:#4a6484;stroke-width:1" x1="155" x2="196" y1="340.094" y2="340.094"/><polygon fill="#4A6484" points="165 336.094 155 340.094 165 344.094 161 340.094" style="stroke:#4a6484;stroke-width:1"/><text x="161" y="322.028" fill="#000" font-family="sans-serif" font-size="13" lengthAdjust="spacingAndGlyphs" textLength="91">on_exec_error</text><polygon fill="#4A6484" points="55 395.094 45 399.094 55 403.094 51 399.094" style="stroke:#4a6484;stroke-width:1"/><line style="stroke:#4a6484;stroke-width:1" x1="49" x2="143" y1="399.094" y2="399.094"/><text x="61" y="394.161" fill="#000" font-family="sans-serif" font-size="13" lengthAdjust="spacingAndGlyphs" textLength="39">report</text><line style="stroke:#4a6484;stroke-width:1" x1="49" x2="91" y1="428.359" y2="428.359"/><line style="stroke:#4a6484;stroke-width:1" x1="91" x2="91" y1="428.359" y2="441.359"/><line style="stroke:#4a6484;stroke-width:1" x1="50" x2="91" y1="441.359" y2="441.359"/><polygon fill="#4A6484" points="60 437.359 50 441.359 60 445.359 56 441.359" style="stroke:#4a6484;stroke-width:1"/><text x="56" y="423.293" fill="#000" font-family="sans-serif" font-size="13" lengthAdjust="spacingAndGlyphs" textLength="54">on_error</text></g></svg>