<svg xmlns="http://www.w3.org/2000/svg" xmlns:xlink="http://www.w3.org/1999/xlink" width="235" height="388" contentScriptType="application/ecmascript" contentStyleType="text/css" style="width:235px;height:388px" preserveAspectRatio="none" version="1.1" viewBox="0 0 235 388" zoomAndPan="magnify"><defs><filter id="ffwbpli" width="300%" height="300%" x="-1" y="-1"><feGaussianBlur result="blurOut" stdDeviation="2"/><feColorMatrix in="blurOut" result="blurOut2" type="matrix" values="0 0 0 0 0 0 0 0 0 0 0 0 0 0 0 0 0 0 .4 0"/><feOffset dx="4" dy="4" in="blurOut2" result="blurOut3"/><feBlend in="SourceGraphic" in2="blurOut3" mode="normal"/></filter></defs><g><rect style="stroke:#4a6484;stroke-width:1" width="10" height="292.469" x="49" y="48.297" fill="#FFF" filter="url(#ffwbpli)"/><rect style="stroke:#4a6484;stroke-width:1" width="10" height="28" x="54" y="77.297" fill="#FFF" filter="url(#ffwbpli)"/><rect style="stroke:#4a6484;stroke-width:1" width="10" height="28" x="54" y="202.695" fill="#FFF" filter="url(#ffwbpli)"/><rect style="stroke:#4a6484;stroke-width:1" width="10" height="28" x="54" y="289.633" fill="#FFF" filter="url(#ffwbpli)"/><rect style="stroke:#4a6484;stroke-width:1" width="10" height="199.336" x="171" y="141.43" fill="#FFF" filter="url(#ffwbpli)"/><rect style="stroke:#000;stroke-width:2" width="213" height="176.203" x="13" y="156.563" fill="#FFF" filter="url(#ffwbpli)"/><rect style="stroke:none;stroke-width:1" width="213" height="86.938" x="13" y="245.828" fill="#FFF"/><line style="stroke:#4a6484;stroke-width:1;stroke-dasharray:5,5" x1="54" x2="54" y1="38.297" y2="349.766"/><line style="stroke:#4a6484;stroke-width:1;stroke-dasharray:5,5" x1="176" x2="176" y1="38.297" y2="349.766"/><rect style="stroke:#000;stroke-width:1.5" width="58" height="30.297" x="23" y="3" fill="#91C6FF" filter="url(#ffwbpli)"/><text x="30" y="22.995" fill="#000" font-family="sans-serif" font-size="14" lengthAdjust="spacingAndGlyphs" textLength="44">Father</text><rect style="stroke:#000;stroke-width:1.5" width="58" height="30.297" x="23" y="348.766" fill="#91C6FF" filter="url(#ffwbpli)"/><text x="30" y="368.761" fill="#000" font-family="sans-serif" font-size="14" lengthAdjust="spacingAndGlyphs" textLength="44">Father</text><rect style="stroke:#000;stroke-width:1.5" width="48" height="30.297" x="150" y="3" fill="#91C6FF" filter="url(#ffwbpli)"/><text x="157" y="22.995" fill="#000" font-family="sans-serif" font-size="14" lengthAdjust="spacingAndGlyphs" textLength="34">Child</text><rect style="stroke:#000;stroke-width:1.5" width="48" height="30.297" x="150" y="348.766" fill="#91C6FF" filter="url(#ffwbpli)"/><text x="157" y="368.761" fill="#000" font-family="sans-serif" font-size="14" lengthAdjust="spacingAndGlyphs" textLength="34">Child</text><rect style="stroke:#4a6484;stroke-width:1" width="10" height="292.469" x="49" y="48.297" fill="#FFF" filter="url(#ffwbpli)"/><rect style="stroke:#4a6484;stroke-width:1" width="10" height="28" x="54" y="77.297" fill="#FFF" filter="url(#ffwbpli)"/><rect style="stroke:#4a6484;stroke-width:1" width="10" height="28" x="54" y="202.695" fill="#FFF" filter="url(#ffwbpli)"/><rect style="stroke:#4a6484;stroke-width:1" width="10" height="28" x="54" y="289.633" fill="#FFF" filter="url(#ffwbpli)"/><rect style="stroke:#4a6484;stroke-width:1" width="10" height="199.336" x="171" y="141.43" fill="#FFF" filter="url(#ffwbpli)"/><line style="stroke:#4a6484;stroke-width:1" x1="64" x2="106" y1="69.43" y2="69.43"/><line style="stroke:#4a6484;stroke-width:1" x1="106" x2="106" y1="69.43" y2="82.43"/><line style="stroke:#4a6484;stroke-width:1" x1="65" x2="106" y1="82.43" y2="82.43"/><polygon fill="#4A6484" points="75 78.43 65 82.43 75 86.43 71 82.43" style="stroke:#4a6484;stroke-width:1"/><text x="71" y="64.364" fill="#000" font-family="sans-serif" font-size="13" lengthAdjust="spacingAndGlyphs" textLength="59">on_setup</text><polygon fill="#4A6484" points="159 137.43 169 141.43 159 145.43 163 141.43" style="stroke:#4a6484;stroke-width:1"/><line style="stroke:#4a6484;stroke-width:1" x1="59" x2="165" y1="141.43" y2="141.43"/><text x="66" y="136.497" fill="#000" font-family="sans-serif" font-size="13" lengthAdjust="spacingAndGlyphs" textLength="93">CreateProcess</text><rect style="stroke:#000;stroke-width:2" width="213" height="176.203" x="13" y="156.563" fill="none"/><polygon fill="#EEE" points="13 156.563 77 156.563 77 163.563 67 173.563 13 173.563 13 156.563" style="stroke:#000;stroke-width:2"/><text x="28" y="169.629" fill="#000" font-family="sans-serif" font-size="13" font-weight="bold" lengthAdjust="spacingAndGlyphs" textLength="19">alt</text><text x="92" y="168.773" fill="#000" font-family="sans-serif" font-size="11" font-weight="bold" lengthAdjust="spacingAndGlyphs" textLength="129">[Successful Launch]</text><line style="stroke:#4a6484;stroke-width:1" x1="64" x2="106" y1="194.828" y2="194.828"/><line style="stroke:#4a6484;stroke-width:1" x1="106" x2="106" y1="194.828" y2="207.828"/><line style="stroke:#4a6484;stroke-width:1" x1="65" x2="106" y1="207.828" y2="207.828"/><polygon fill="#4A6484" points="75 203.828 65 207.828 75 211.828 71 207.828" style="stroke:#4a6484;stroke-width:1"/><text x="71" y="189.762" fill="#000" font-family="sans-serif" font-size="13" lengthAdjust="spacingAndGlyphs" textLength="74">on_success</text><line style="stroke:#000;stroke-width:1;stroke-dasharray:2,2" x1="13" x2="226" y1="246.828" y2="246.828"/><text x="18" y="257.039" fill="#000" font-family="sans-serif" font-size="11" font-weight="bold" lengthAdjust="spacingAndGlyphs" textLength="133">[Error during launch]</text><line style="stroke:#4a6484;stroke-width:1" x1="64" x2="106" y1="281.766" y2="281.766"/><line style="stroke:#4a6484;stroke-width:1" x1="106" x2="106" y1="281.766" y2="294.766"/><line style="stroke:#4a6484;stroke-width:1" x1="65" x2="106" y1="294.766" y2="294.766"/><polygon fill="#4A6484" points="75 290.766 65 294.766 75 298.766 71 294.766" style="stroke:#4a6484;stroke-width:1"/><text x="71" y="276.7" fill="#000" font-family="sans-serif" font-size="13" lengthAdjust="spacingAndGlyphs" textLength="54">on_error</text></g></svg>